<svg xmlns="http://www.w3.org/2000/svg" xmlns:xlink="http://www.w3.org/1999/xlink" contentStyleType="text/css" height="687px" preserveAspectRatio="none" style="width:2111px;height:687px;background:#FFFFFF;" version="1.1" viewBox="0 0 2111 687" width="2111px" zoomAndPan="magnify"><title>Motor Monte Carlo</title><defs/><g><text fill="#000000" font-family="sans-serif" font-size="14" font-weight="bold" lengthAdjust="spacing" textLength="123.6553" x="986.6758" y="24.5332">Motor Monte Carlo</text><!--cluster Metricas--><g id="cluster_Metricas"><rect fill="none" height="295" rx="2.5" ry="2.5" style="stroke:#000000;stroke-width:1.5;" width="692" x="1095" y="386.1094"/><text fill="#000000" font-family="sans-serif" font-size="14" font-weight="bold" lengthAdjust="spacing" textLength="56.8066" x="1412.5967" y="402.6426">Metricas</text></g><!--cluster PKG_RNG--><g id="cluster_PKG_RNG"><rect fill="none" height="414.5" rx="2.5" ry="2.5" style="stroke:#000000;stroke-width:1.5;" width="565" x="7" y="251.6094"/><text fill="#000000" font-family="sans-serif" font-size="14" font-weight="bold" lengthAdjust="spacing" textLength="84.7998" x="247.1001" y="268.1426">Aleatoriedad</text></g><!--class RiskCalculator--><g id="elem_RiskCalculator"><rect codeLine="36" fill="#F1F1F1" height="100.8281" id="RiskCalculator" rx="2.5" ry="2.5" style="stroke:#181818;stroke-width:0.5;" width="235.6924" x="1249" y="422.1094"/><ellipse cx="1317.4722" cy="438.1094" fill="#ADD1B2" rx="11" ry="11" style="stroke:#181818;stroke-width:1;"/><path d="M1320.2378,433.9844 Q1320.394,433.7656 1320.5815,433.6563 Q1320.769,433.5469 1320.9878,433.5469 Q1321.3628,433.5469 1321.5972,433.8047 Q1321.8315,434.0625 1321.8315,434.6719 L1321.8315,436.125 Q1321.8315,436.7344 1321.5972,437 Q1321.3628,437.2656 1320.9878,437.2656 Q1320.644,437.2656 1320.4409,437.0625 Q1320.2378,436.875 1320.1284,436.3594 Q1320.0815,436 1319.894,435.8125 Q1319.5659,435.4375 1318.9565,435.2188 Q1318.3472,435 1317.7222,435 Q1316.9565,435 1316.3237,435.3281 Q1315.6909,435.6563 1315.1987,436.4063 Q1314.7065,437.1563 1314.7065,438.1875 L1314.7065,439.2813 Q1314.7065,440.5156 1315.5972,441.3359 Q1316.4878,442.1563 1318.0815,442.1563 Q1319.019,442.1563 1319.6753,441.9063 Q1320.0659,441.75 1320.4878,441.3125 Q1320.7534,441.0469 1320.9019,440.9688 Q1321.0503,440.8906 1321.2534,440.8906 Q1321.5815,440.8906 1321.8394,441.1484 Q1322.0972,441.4063 1322.0972,441.75 Q1322.0972,442.0938 1321.7534,442.5 Q1321.2534,443.0781 1320.4565,443.4063 Q1319.3784,443.8594 1318.0815,443.8594 Q1316.5659,443.8594 1315.3628,443.2344 Q1314.3784,442.7344 1313.6909,441.6641 Q1313.0034,440.5938 1313.0034,439.3125 L1313.0034,438.1563 Q1313.0034,436.8281 1313.6206,435.6797 Q1314.2378,434.5313 1315.3315,433.9141 Q1316.4253,433.2969 1317.6597,433.2969 Q1318.394,433.2969 1319.0425,433.4609 Q1319.6909,433.625 1320.2378,433.9844 Z " fill="#000000"/><text fill="#000000" font-family="sans-serif" font-size="14" lengthAdjust="spacing" textLength="90.248" x="1337.9722" y="443.8379">RiskCalculator</text><line style="stroke:#181818;stroke-width:0.5;" x1="1250" x2="1483.6924" y1="454.1094" y2="454.1094"/><line style="stroke:#181818;stroke-width:0.5;" x1="1250" x2="1483.6924" y1="462.1094" y2="462.1094"/><text fill="#000000" font-family="sans-serif" font-size="14" lengthAdjust="spacing" textLength="214.3613" x="1255" y="480.6426">+calculateVaR(...), calculateES(...)</text><text fill="#000000" font-family="sans-serif" font-size="14" lengthAdjust="spacing" textLength="209.6719" x="1255" y="498.252">+estimateVaR(...), estimateES(...)</text><text fill="#000000" font-family="sans-serif" font-size="14" lengthAdjust="spacing" textLength="223.6924" x="1255" y="515.8613">+estimateMeanPnL() : RiskEstimate</text></g><!--class StandardErrorOptions--><g id="elem_StandardErrorOptions"><rect codeLine="42" fill="#F1F1F1" height="93.9219" id="StandardErrorOptions" rx="2.5" ry="2.5" style="stroke:#181818;stroke-width:0.5;" width="269.2158" x="1111.5" y="562.1094"/><ellipse cx="1173.7686" cy="583.4609" fill="#ADD1B2" rx="11" ry="11" style="stroke:#181818;stroke-width:1;"/><path d="M1176.5342,579.3359 Q1176.6904,579.1172 1176.8779,579.0078 Q1177.0654,578.8984 1177.2842,578.8984 Q1177.6592,578.8984 1177.8936,579.1563 Q1178.1279,579.4141 1178.1279,580.0234 L1178.1279,581.4766 Q1178.1279,582.0859 1177.8936,582.3516 Q1177.6592,582.6172 1177.2842,582.6172 Q1176.9404,582.6172 1176.7373,582.4141 Q1176.5342,582.2266 1176.4248,581.7109 Q1176.3779,581.3516 1176.1904,581.1641 Q1175.8623,580.7891 1175.2529,580.5703 Q1174.6436,580.3516 1174.0186,580.3516 Q1173.2529,580.3516 1172.6201,580.6797 Q1171.9873,581.0078 1171.4951,581.7578 Q1171.0029,582.5078 1171.0029,583.5391 L1171.0029,584.6328 Q1171.0029,585.8672 1171.8936,586.6875 Q1172.7842,587.5078 1174.3779,587.5078 Q1175.3154,587.5078 1175.9717,587.2578 Q1176.3623,587.1016 1176.7842,586.6641 Q1177.0498,586.3984 1177.1982,586.3203 Q1177.3467,586.2422 1177.5498,586.2422 Q1177.8779,586.2422 1178.1357,586.5 Q1178.3936,586.7578 1178.3936,587.1016 Q1178.3936,587.4453 1178.0498,587.8516 Q1177.5498,588.4297 1176.7529,588.7578 Q1175.6748,589.2109 1174.3779,589.2109 Q1172.8623,589.2109 1171.6592,588.5859 Q1170.6748,588.0859 1169.9873,587.0156 Q1169.2998,585.9453 1169.2998,584.6641 L1169.2998,583.5078 Q1169.2998,582.1797 1169.917,581.0313 Q1170.5342,579.8828 1171.6279,579.2656 Q1172.7217,578.6484 1173.9561,578.6484 Q1174.6904,578.6484 1175.3389,578.8125 Q1175.9873,578.9766 1176.5342,579.3359 Z " fill="#000000"/><text fill="#000000" font-family="sans-serif" font-size="12" font-style="italic" lengthAdjust="spacing" textLength="42.6855" x="1241.0151" y="579.5664">&#171;struct&#187;</text><text fill="#000000" font-family="sans-serif" font-size="14" lengthAdjust="spacing" textLength="136.1787" x="1194.2686" y="596.7363">StandardErrorOptions</text><line style="stroke:#181818;stroke-width:0.5;" x1="1112.5" x2="1379.7158" y1="604.8125" y2="604.8125"/><text fill="#000000" font-family="sans-serif" font-size="14" lengthAdjust="spacing" textLength="114.8027" x="1117.5" y="623.3457">+enabled, scheme</text><text fill="#000000" font-family="sans-serif" font-size="14" lengthAdjust="spacing" textLength="257.2158" x="1117.5" y="640.9551">+bootstrapReplications, sobolBatchCount</text><line style="stroke:#181818;stroke-width:0.5;" x1="1112.5" x2="1379.7158" y1="648.0313" y2="648.0313"/></g><!--class RiskEstimate--><g id="elem_RiskEstimate"><rect codeLine="47" fill="#F1F1F1" height="76.3125" id="RiskEstimate" rx="2.5" ry="2.5" style="stroke:#181818;stroke-width:0.5;" width="147.0166" x="1415.5" y="571.1094"/><ellipse cx="1445.5003" cy="592.4609" fill="#ADD1B2" rx="11" ry="11" style="stroke:#181818;stroke-width:1;"/><path d="M1448.2659,588.3359 Q1448.4222,588.1172 1448.6097,588.0078 Q1448.7972,587.8984 1449.0159,587.8984 Q1449.3909,587.8984 1449.6253,588.1563 Q1449.8597,588.4141 1449.8597,589.0234 L1449.8597,590.4766 Q1449.8597,591.0859 1449.6253,591.3516 Q1449.3909,591.6172 1449.0159,591.6172 Q1448.6722,591.6172 1448.469,591.4141 Q1448.2659,591.2266 1448.1565,590.7109 Q1448.1097,590.3516 1447.9222,590.1641 Q1447.594,589.7891 1446.9847,589.5703 Q1446.3753,589.3516 1445.7503,589.3516 Q1444.9847,589.3516 1444.3519,589.6797 Q1443.719,590.0078 1443.2269,590.7578 Q1442.7347,591.5078 1442.7347,592.5391 L1442.7347,593.6328 Q1442.7347,594.8672 1443.6253,595.6875 Q1444.5159,596.5078 1446.1097,596.5078 Q1447.0472,596.5078 1447.7034,596.2578 Q1448.094,596.1016 1448.5159,595.6641 Q1448.7815,595.3984 1448.93,595.3203 Q1449.0784,595.2422 1449.2815,595.2422 Q1449.6097,595.2422 1449.8675,595.5 Q1450.1253,595.7578 1450.1253,596.1016 Q1450.1253,596.4453 1449.7815,596.8516 Q1449.2815,597.4297 1448.4847,597.7578 Q1447.4065,598.2109 1446.1097,598.2109 Q1444.594,598.2109 1443.3909,597.5859 Q1442.4065,597.0859 1441.719,596.0156 Q1441.0315,594.9453 1441.0315,593.6641 L1441.0315,592.5078 Q1441.0315,591.1797 1441.6487,590.0313 Q1442.2659,588.8828 1443.3597,588.2656 Q1444.4534,587.6484 1445.6878,587.6484 Q1446.4222,587.6484 1447.0706,587.8125 Q1447.719,587.9766 1448.2659,588.3359 Z " fill="#000000"/><text fill="#000000" font-family="sans-serif" font-size="12" font-style="italic" lengthAdjust="spacing" textLength="42.6855" x="1482.3322" y="588.5664">&#171;struct&#187;</text><text fill="#000000" font-family="sans-serif" font-size="14" lengthAdjust="spacing" textLength="81.6826" x="1462.8337" y="605.7363">RiskEstimate</text><line style="stroke:#181818;stroke-width:0.5;" x1="1416.5" x2="1561.5166" y1="613.8125" y2="613.8125"/><text fill="#000000" font-family="sans-serif" font-size="14" lengthAdjust="spacing" textLength="135.0166" x="1421.5" y="632.3457">+value, standardError</text><line style="stroke:#181818;stroke-width:0.5;" x1="1416.5" x2="1561.5166" y1="639.4219" y2="639.4219"/></g><!--class MonteCarloErrorPolicy--><g id="elem_MonteCarloErrorPolicy"><rect codeLine="51" fill="#F1F1F1" height="111.5313" id="MonteCarloErrorPolicy" rx="2.5" ry="2.5" style="stroke:#181818;stroke-width:0.5;" width="172.8203" x="1597.5" y="553.1094"/><ellipse cx="1612.5" cy="574.4609" fill="#ADD1B2" rx="11" ry="11" style="stroke:#181818;stroke-width:1;"/><path d="M1615.2656,570.3359 Q1615.4219,570.1172 1615.6094,570.0078 Q1615.7969,569.8984 1616.0156,569.8984 Q1616.3906,569.8984 1616.625,570.1563 Q1616.8594,570.4141 1616.8594,571.0234 L1616.8594,572.4766 Q1616.8594,573.0859 1616.625,573.3516 Q1616.3906,573.6172 1616.0156,573.6172 Q1615.6719,573.6172 1615.4688,573.4141 Q1615.2656,573.2266 1615.1563,572.7109 Q1615.1094,572.3516 1614.9219,572.1641 Q1614.5938,571.7891 1613.9844,571.5703 Q1613.375,571.3516 1612.75,571.3516 Q1611.9844,571.3516 1611.3516,571.6797 Q1610.7188,572.0078 1610.2266,572.7578 Q1609.7344,573.5078 1609.7344,574.5391 L1609.7344,575.6328 Q1609.7344,576.8672 1610.625,577.6875 Q1611.5156,578.5078 1613.1094,578.5078 Q1614.0469,578.5078 1614.7031,578.2578 Q1615.0938,578.1016 1615.5156,577.6641 Q1615.7813,577.3984 1615.9297,577.3203 Q1616.0781,577.2422 1616.2813,577.2422 Q1616.6094,577.2422 1616.8672,577.5 Q1617.125,577.7578 1617.125,578.1016 Q1617.125,578.4453 1616.7813,578.8516 Q1616.2813,579.4297 1615.4844,579.7578 Q1614.4063,580.2109 1613.1094,580.2109 Q1611.5938,580.2109 1610.3906,579.5859 Q1609.4063,579.0859 1608.7188,578.0156 Q1608.0313,576.9453 1608.0313,575.6641 L1608.0313,574.5078 Q1608.0313,573.1797 1608.6484,572.0313 Q1609.2656,570.8828 1610.3594,570.2656 Q1611.4531,569.6484 1612.6875,569.6484 Q1613.4219,569.6484 1614.0703,569.8125 Q1614.7188,569.9766 1615.2656,570.3359 Z " fill="#000000"/><text fill="#000000" font-family="sans-serif" font-size="12" font-style="italic" lengthAdjust="spacing" textLength="40.6875" x="1676.5664" y="570.5664">&#171;utility&#187;</text><text fill="#000000" font-family="sans-serif" font-size="14" lengthAdjust="spacing" textLength="140.8203" x="1626.5" y="587.7363">MonteCarloErrorPolicy</text><line style="stroke:#181818;stroke-width:0.5;" x1="1598.5" x2="1769.3203" y1="595.8125" y2="595.8125"/><line style="stroke:#181818;stroke-width:0.5;" x1="1598.5" x2="1769.3203" y1="603.8125" y2="603.8125"/><text fill="#000000" font-family="sans-serif" font-size="14" lengthAdjust="spacing" text-decoration="underline" textLength="131.8926" x="1603.5" y="622.3457">+prepareSamples(...)</text><text fill="#000000" font-family="sans-serif" font-size="14" lengthAdjust="spacing" text-decoration="underline" textLength="136.5479" x="1603.5" y="639.9551">+varStandardError(...)</text><text fill="#000000" font-family="sans-serif" font-size="14" lengthAdjust="spacing" text-decoration="underline" textLength="131.8857" x="1603.5" y="657.5645">+esStandardError(...)</text></g><!--class RandomGenerator--><g id="elem_RandomGenerator"><rect codeLine="63" fill="#F1F1F1" height="48" id="RandomGenerator" rx="2.5" ry="2.5" style="stroke:#181818;stroke-width:0.5;" width="147.9512" x="150" y="295.6094"/><ellipse cx="165" cy="311.6094" fill="#B4A7E5" rx="11" ry="11" style="stroke:#181818;stroke-width:1;"/><path d="M165.9531,308.25 L165.9531,314.9063 L167.6719,314.9063 Q168.2813,314.9063 168.5469,315.1406 Q168.8125,315.375 168.8125,315.7656 Q168.8125,316.1406 168.5469,316.375 Q168.2813,316.6094 167.6719,316.6094 L162.5313,316.6094 Q161.9219,316.6094 161.6563,316.375 Q161.3906,316.1406 161.3906,315.75 Q161.3906,315.375 161.6563,315.1406 Q161.9219,314.9063 162.5313,314.9063 L164.25,314.9063 L164.25,308.25 L162.5313,308.25 Q161.9219,308.25 161.6563,308.0156 Q161.3906,307.7813 161.3906,307.3906 Q161.3906,307.0156 161.6563,306.7813 Q161.9219,306.5469 162.5313,306.5469 L167.6719,306.5469 Q168.2813,306.5469 168.5469,306.7813 Q168.8125,307.0156 168.8125,307.3906 Q168.8125,307.7813 168.5469,308.0156 Q168.2813,308.25 167.6719,308.25 L165.9531,308.25 Z " fill="#000000"/><text fill="#000000" font-family="sans-serif" font-size="14" font-style="italic" lengthAdjust="spacing" textLength="115.9512" x="179" y="317.3379">RandomGenerator</text><line style="stroke:#181818;stroke-width:0.5;" x1="151" x2="296.9512" y1="327.6094" y2="327.6094"/><line style="stroke:#181818;stroke-width:0.5;" x1="151" x2="296.9512" y1="335.6094" y2="335.6094"/></g><!--class MersenneTwisterGen--><g id="elem_MersenneTwisterGen"><rect codeLine="64" fill="#F1F1F1" height="48" id="MersenneTwisterGen" rx="2.5" ry="2.5" style="stroke:#181818;stroke-width:0.5;" width="165.8271" x="71" y="448.6094"/><ellipse cx="86" cy="464.6094" fill="#ADD1B2" rx="11" ry="11" style="stroke:#181818;stroke-width:1;"/><path d="M88.7656,460.4844 Q88.9219,460.2656 89.1094,460.1563 Q89.2969,460.0469 89.5156,460.0469 Q89.8906,460.0469 90.125,460.3047 Q90.3594,460.5625 90.3594,461.1719 L90.3594,462.625 Q90.3594,463.2344 90.125,463.5 Q89.8906,463.7656 89.5156,463.7656 Q89.1719,463.7656 88.9688,463.5625 Q88.7656,463.375 88.6563,462.8594 Q88.6094,462.5 88.4219,462.3125 Q88.0938,461.9375 87.4844,461.7188 Q86.875,461.5 86.25,461.5 Q85.4844,461.5 84.8516,461.8281 Q84.2188,462.1563 83.7266,462.9063 Q83.2344,463.6563 83.2344,464.6875 L83.2344,465.7813 Q83.2344,467.0156 84.125,467.8359 Q85.0156,468.6563 86.6094,468.6563 Q87.5469,468.6563 88.2031,468.4063 Q88.5938,468.25 89.0156,467.8125 Q89.2813,467.5469 89.4297,467.4688 Q89.5781,467.3906 89.7813,467.3906 Q90.1094,467.3906 90.3672,467.6484 Q90.625,467.9063 90.625,468.25 Q90.625,468.5938 90.2813,469 Q89.7813,469.5781 88.9844,469.9063 Q87.9063,470.3594 86.6094,470.3594 Q85.0938,470.3594 83.8906,469.7344 Q82.9063,469.2344 82.2188,468.1641 Q81.5313,467.0938 81.5313,465.8125 L81.5313,464.6563 Q81.5313,463.3281 82.1484,462.1797 Q82.7656,461.0313 83.8594,460.4141 Q84.9531,459.7969 86.1875,459.7969 Q86.9219,459.7969 87.5703,459.9609 Q88.2188,460.125 88.7656,460.4844 Z " fill="#000000"/><text fill="#000000" font-family="sans-serif" font-size="14" lengthAdjust="spacing" textLength="133.8271" x="100" y="470.3379">MersenneTwisterGen</text><line style="stroke:#181818;stroke-width:0.5;" x1="72" x2="235.8271" y1="480.6094" y2="480.6094"/><line style="stroke:#181818;stroke-width:0.5;" x1="72" x2="235.8271" y1="488.6094" y2="488.6094"/></g><!--class BoostSobolGenerator--><g id="elem_BoostSobolGenerator"><rect codeLine="65" fill="#F1F1F1" height="65.6094" id="BoostSobolGenerator" rx="2.5" ry="2.5" style="stroke:#181818;stroke-width:0.5;" width="166.6406" x="272.5" y="439.6094"/><ellipse cx="287.5" cy="455.6094" fill="#ADD1B2" rx="11" ry="11" style="stroke:#181818;stroke-width:1;"/><path d="M290.2656,451.4844 Q290.4219,451.2656 290.6094,451.1563 Q290.7969,451.0469 291.0156,451.0469 Q291.3906,451.0469 291.625,451.3047 Q291.8594,451.5625 291.8594,452.1719 L291.8594,453.625 Q291.8594,454.2344 291.625,454.5 Q291.3906,454.7656 291.0156,454.7656 Q290.6719,454.7656 290.4688,454.5625 Q290.2656,454.375 290.1563,453.8594 Q290.1094,453.5 289.9219,453.3125 Q289.5938,452.9375 288.9844,452.7188 Q288.375,452.5 287.75,452.5 Q286.9844,452.5 286.3516,452.8281 Q285.7188,453.1563 285.2266,453.9063 Q284.7344,454.6563 284.7344,455.6875 L284.7344,456.7813 Q284.7344,458.0156 285.625,458.8359 Q286.5156,459.6563 288.1094,459.6563 Q289.0469,459.6563 289.7031,459.4063 Q290.0938,459.25 290.5156,458.8125 Q290.7813,458.5469 290.9297,458.4688 Q291.0781,458.3906 291.2813,458.3906 Q291.6094,458.3906 291.8672,458.6484 Q292.125,458.9063 292.125,459.25 Q292.125,459.5938 291.7813,460 Q291.2813,460.5781 290.4844,460.9063 Q289.4063,461.3594 288.1094,461.3594 Q286.5938,461.3594 285.3906,460.7344 Q284.4063,460.2344 283.7188,459.1641 Q283.0313,458.0938 283.0313,456.8125 L283.0313,455.6563 Q283.0313,454.3281 283.6484,453.1797 Q284.2656,452.0313 285.3594,451.4141 Q286.4531,450.7969 287.6875,450.7969 Q288.4219,450.7969 289.0703,450.9609 Q289.7188,451.125 290.2656,451.4844 Z " fill="#000000"/><text fill="#000000" font-family="sans-serif" font-size="14" lengthAdjust="spacing" textLength="134.6406" x="301.5" y="461.3379">BoostSobolGenerator</text><line style="stroke:#181818;stroke-width:0.5;" x1="273.5" x2="438.1406" y1="471.6094" y2="471.6094"/><line style="stroke:#181818;stroke-width:0.5;" x1="273.5" x2="438.1406" y1="479.6094" y2="479.6094"/><text fill="#000000" font-family="sans-serif" font-size="14" lengthAdjust="spacing" textLength="75.8584" x="278.5" y="498.1426">+skip(steps)</text></g><!--class BrownianBridge--><g id="elem_BrownianBridge"><rect codeLine="68" fill="#F1F1F1" height="65.6094" id="BrownianBridge" rx="2.5" ry="2.5" style="stroke:#181818;stroke-width:0.5;" width="316.6025" x="230.5" y="576.1094"/><ellipse cx="335.1343" cy="592.1094" fill="#ADD1B2" rx="11" ry="11" style="stroke:#181818;stroke-width:1;"/><path d="M337.8999,587.9844 Q338.0562,587.7656 338.2437,587.6563 Q338.4312,587.5469 338.6499,587.5469 Q339.0249,587.5469 339.2593,587.8047 Q339.4937,588.0625 339.4937,588.6719 L339.4937,590.125 Q339.4937,590.7344 339.2593,591 Q339.0249,591.2656 338.6499,591.2656 Q338.3062,591.2656 338.103,591.0625 Q337.8999,590.875 337.7905,590.3594 Q337.7437,590 337.5562,589.8125 Q337.228,589.4375 336.6187,589.2188 Q336.0093,589 335.3843,589 Q334.6187,589 333.9858,589.3281 Q333.353,589.6563 332.8608,590.4063 Q332.3687,591.1563 332.3687,592.1875 L332.3687,593.2813 Q332.3687,594.5156 333.2593,595.3359 Q334.1499,596.1563 335.7437,596.1563 Q336.6812,596.1563 337.3374,595.9063 Q337.728,595.75 338.1499,595.3125 Q338.4155,595.0469 338.564,594.9688 Q338.7124,594.8906 338.9155,594.8906 Q339.2437,594.8906 339.5015,595.1484 Q339.7593,595.4063 339.7593,595.75 Q339.7593,596.0938 339.4155,596.5 Q338.9155,597.0781 338.1187,597.4063 Q337.0405,597.8594 335.7437,597.8594 Q334.228,597.8594 333.0249,597.2344 Q332.0405,596.7344 331.353,595.6641 Q330.6655,594.5938 330.6655,593.3125 L330.6655,592.1563 Q330.6655,590.8281 331.2827,589.6797 Q331.8999,588.5313 332.9937,587.9141 Q334.0874,587.2969 335.3218,587.2969 Q336.0562,587.2969 336.7046,587.4609 Q337.353,587.625 337.8999,587.9844 Z " fill="#000000"/><text fill="#000000" font-family="sans-serif" font-size="14" lengthAdjust="spacing" textLength="98.834" x="355.6343" y="597.8379">BrownianBridge</text><line style="stroke:#181818;stroke-width:0.5;" x1="231.5" x2="546.1025" y1="608.1094" y2="608.1094"/><line style="stroke:#181818;stroke-width:0.5;" x1="231.5" x2="546.1025" y1="616.1094" y2="616.1094"/><text fill="#000000" font-family="sans-serif" font-size="14" lengthAdjust="spacing" textLength="304.6025" x="236.5" y="634.6426">+transformToStandardNormals(sobolZ, impliedZ)</text></g><!--class MathUtils--><g id="elem_MathUtils"><rect codeLine="71" fill="#F1F1F1" height="65.6094" id="MathUtils" rx="2.5" ry="2.5" style="stroke:#181818;stroke-width:0.5;" width="156.3066" x="39" y="576.1094"/><ellipse cx="83.731" cy="592.1094" fill="#ADD1B2" rx="11" ry="11" style="stroke:#181818;stroke-width:1;"/><path d="M86.4966,587.9844 Q86.6528,587.7656 86.8403,587.6563 Q87.0278,587.5469 87.2466,587.5469 Q87.6216,587.5469 87.856,587.8047 Q88.0903,588.0625 88.0903,588.6719 L88.0903,590.125 Q88.0903,590.7344 87.856,591 Q87.6216,591.2656 87.2466,591.2656 Q86.9028,591.2656 86.6997,591.0625 Q86.4966,590.875 86.3872,590.3594 Q86.3403,590 86.1528,589.8125 Q85.8247,589.4375 85.2153,589.2188 Q84.606,589 83.981,589 Q83.2153,589 82.5825,589.3281 Q81.9497,589.6563 81.4575,590.4063 Q80.9653,591.1563 80.9653,592.1875 L80.9653,593.2813 Q80.9653,594.5156 81.856,595.3359 Q82.7466,596.1563 84.3403,596.1563 Q85.2778,596.1563 85.9341,595.9063 Q86.3247,595.75 86.7466,595.3125 Q87.0122,595.0469 87.1606,594.9688 Q87.3091,594.8906 87.5122,594.8906 Q87.8403,594.8906 88.0981,595.1484 Q88.356,595.4063 88.356,595.75 Q88.356,596.0938 88.0122,596.5 Q87.5122,597.0781 86.7153,597.4063 Q85.6372,597.8594 84.3403,597.8594 Q82.8247,597.8594 81.6216,597.2344 Q80.6372,596.7344 79.9497,595.6641 Q79.2622,594.5938 79.2622,593.3125 L79.2622,592.1563 Q79.2622,590.8281 79.8794,589.6797 Q80.4966,588.5313 81.5903,587.9141 Q82.6841,587.2969 83.9185,587.2969 Q84.6528,587.2969 85.3013,587.4609 Q85.9497,587.625 86.4966,587.9844 Z " fill="#000000"/><text fill="#000000" font-family="sans-serif" font-size="14" lengthAdjust="spacing" textLength="58.3447" x="104.231" y="597.8379">MathUtils</text><line style="stroke:#181818;stroke-width:0.5;" x1="40" x2="194.3066" y1="608.1094" y2="608.1094"/><line style="stroke:#181818;stroke-width:0.5;" x1="40" x2="194.3066" y1="616.1094" y2="616.1094"/><text fill="#000000" font-family="sans-serif" font-size="14" lengthAdjust="spacing" text-decoration="underline" textLength="144.3066" x="45" y="634.6426">+inverseNormalCDF(p)</text></g><!--class SimConfig--><g id="elem_SimConfig"><rect codeLine="10" fill="#F1F1F1" height="181.9688" id="SimConfig" rx="2.5" ry="2.5" style="stroke:#181818;stroke-width:0.5;" width="269.2158" x="585.5" y="45.6094"/><ellipse cx="683.5684" cy="66.9609" fill="#ADD1B2" rx="11" ry="11" style="stroke:#181818;stroke-width:1;"/><path d="M686.334,62.8359 Q686.4902,62.6172 686.6777,62.5078 Q686.8652,62.3984 687.084,62.3984 Q687.459,62.3984 687.6934,62.6563 Q687.9277,62.9141 687.9277,63.5234 L687.9277,64.9766 Q687.9277,65.5859 687.6934,65.8516 Q687.459,66.1172 687.084,66.1172 Q686.7402,66.1172 686.5371,65.9141 Q686.334,65.7266 686.2246,65.2109 Q686.1777,64.8516 685.9902,64.6641 Q685.6621,64.2891 685.0527,64.0703 Q684.4434,63.8516 683.8184,63.8516 Q683.0527,63.8516 682.4199,64.1797 Q681.7871,64.5078 681.2949,65.2578 Q680.8027,66.0078 680.8027,67.0391 L680.8027,68.1328 Q680.8027,69.3672 681.6934,70.1875 Q682.584,71.0078 684.1777,71.0078 Q685.1152,71.0078 685.7715,70.7578 Q686.1621,70.6016 686.584,70.1641 Q686.8496,69.8984 686.998,69.8203 Q687.1465,69.7422 687.3496,69.7422 Q687.6777,69.7422 687.9355,70 Q688.1934,70.2578 688.1934,70.6016 Q688.1934,70.9453 687.8496,71.3516 Q687.3496,71.9297 686.5527,72.2578 Q685.4746,72.7109 684.1777,72.7109 Q682.6621,72.7109 681.459,72.0859 Q680.4746,71.5859 679.7871,70.5156 Q679.0996,69.4453 679.0996,68.1641 L679.0996,67.0078 Q679.0996,65.6797 679.7168,64.5313 Q680.334,63.3828 681.4277,62.7656 Q682.5215,62.1484 683.7559,62.1484 Q684.4902,62.1484 685.1387,62.3125 Q685.7871,62.4766 686.334,62.8359 Z " fill="#000000"/><text fill="#000000" font-family="sans-serif" font-size="12" font-style="italic" lengthAdjust="spacing" textLength="42.6855" x="715.0151" y="63.0664">&#171;struct&#187;</text><text fill="#000000" font-family="sans-serif" font-size="14" lengthAdjust="spacing" textLength="64.5791" x="704.0684" y="80.2363">SimConfig</text><line style="stroke:#181818;stroke-width:0.5;" x1="586.5" x2="853.7158" y1="88.3125" y2="88.3125"/><text fill="#000000" font-family="sans-serif" font-size="14" lengthAdjust="spacing" textLength="201.9131" x="591.5" y="106.8457">+totalSims, totalTime, numSteps</text><text fill="#000000" font-family="sans-serif" font-size="14" lengthAdjust="spacing" textLength="142.7549" x="591.5" y="124.4551">+corrMatrix, numCores</text><text fill="#000000" font-family="sans-serif" font-size="14" lengthAdjust="spacing" textLength="205.8301" x="591.5" y="142.0645">+rngType: {MT, Antithetic, Sobol}</text><text fill="#000000" font-family="sans-serif" font-size="14" lengthAdjust="spacing" textLength="232.2578" x="591.5" y="159.6738">+matrixLayout: {RowMajor, ColMajor}</text><text fill="#000000" font-family="sans-serif" font-size="14" lengthAdjust="spacing" textLength="156.8027" x="591.5" y="177.2832">+computeStandardErrors</text><text fill="#000000" font-family="sans-serif" font-size="14" lengthAdjust="spacing" textLength="257.2158" x="591.5" y="194.8926">+bootstrapReplications, sobolBatchCount</text><line style="stroke:#181818;stroke-width:0.5;" x1="586.5" x2="853.7158" y1="201.9688" y2="201.9688"/><text fill="#000000" font-family="sans-serif" font-size="14" lengthAdjust="spacing" textLength="170.8164" x="591.5" y="220.502">+rngSeed, rateModel (opc.)</text></g><!--class MonteCarloEngine--><g id="elem_MonteCarloEngine"><rect codeLine="20" fill="#F1F1F1" height="100.8281" id="MonteCarloEngine" rx="2.5" ry="2.5" style="stroke:#181818;stroke-width:0.5;" width="246.5957" x="596.5" y="269.1094"/><ellipse cx="657.5688" cy="285.1094" fill="#ADD1B2" rx="11" ry="11" style="stroke:#181818;stroke-width:1;"/><path d="M660.3345,280.9844 Q660.4907,280.7656 660.6782,280.6563 Q660.8657,280.5469 661.0845,280.5469 Q661.4595,280.5469 661.6938,280.8047 Q661.9282,281.0625 661.9282,281.6719 L661.9282,283.125 Q661.9282,283.7344 661.6938,284 Q661.4595,284.2656 661.0845,284.2656 Q660.7407,284.2656 660.5376,284.0625 Q660.3345,283.875 660.2251,283.3594 Q660.1782,283 659.9907,282.8125 Q659.6626,282.4375 659.0532,282.2188 Q658.4438,282 657.8188,282 Q657.0532,282 656.4204,282.3281 Q655.7876,282.6563 655.2954,283.4063 Q654.8032,284.1563 654.8032,285.1875 L654.8032,286.2813 Q654.8032,287.5156 655.6938,288.3359 Q656.5845,289.1563 658.1782,289.1563 Q659.1157,289.1563 659.772,288.9063 Q660.1626,288.75 660.5845,288.3125 Q660.8501,288.0469 660.9985,287.9688 Q661.147,287.8906 661.3501,287.8906 Q661.6782,287.8906 661.936,288.1484 Q662.1938,288.4063 662.1938,288.75 Q662.1938,289.0938 661.8501,289.5 Q661.3501,290.0781 660.5532,290.4063 Q659.4751,290.8594 658.1782,290.8594 Q656.6626,290.8594 655.4595,290.2344 Q654.4751,289.7344 653.7876,288.6641 Q653.1001,287.5938 653.1001,286.3125 L653.1001,285.1563 Q653.1001,283.8281 653.7173,282.6797 Q654.3345,281.5313 655.4282,280.9141 Q656.522,280.2969 657.7563,280.2969 Q658.4907,280.2969 659.1392,280.4609 Q659.7876,280.625 660.3345,280.9844 Z " fill="#000000"/><text fill="#000000" font-family="sans-serif" font-size="14" lengthAdjust="spacing" textLength="115.958" x="678.0688" y="290.8379">MonteCarloEngine</text><line style="stroke:#181818;stroke-width:0.5;" x1="597.5" x2="842.0957" y1="301.1094" y2="301.1094"/><line style="stroke:#181818;stroke-width:0.5;" x1="597.5" x2="842.0957" y1="309.1094" y2="309.1094"/><text fill="#000000" font-family="sans-serif" font-size="14" lengthAdjust="spacing" text-decoration="underline" textLength="234.5957" x="602.5" y="327.6426">+run(portfolio, config) : RiskCalculator</text><text fill="#000000" font-family="sans-serif" font-size="14" lengthAdjust="spacing" textLength="217.0957" x="602.5" y="345.252">-runWithLayout&lt;StorageOrder&gt;(...)</text><text fill="#000000" font-family="sans-serif" font-size="14" lengthAdjust="spacing" textLength="209.3096" x="602.5" y="362.8613">-runBatchImpl&lt;StorageOrder&gt;(...)</text></g><!--class PortfolioRef--><g id="elem_PortfolioRef"><rect codeLine="26" fill="#F1F1F1" height="76.3125" id="PortfolioRef" rx="2.5" ry="2.5" style="stroke:#181818;stroke-width:0.5;" width="147.0098" x="596.5" y="434.6094"/><ellipse cx="630.3394" cy="455.9609" fill="#ADD1B2" rx="11" ry="11" style="stroke:#181818;stroke-width:1;"/><path d="M633.105,451.8359 Q633.2612,451.6172 633.4487,451.5078 Q633.6362,451.3984 633.855,451.3984 Q634.23,451.3984 634.4644,451.6563 Q634.6987,451.9141 634.6987,452.5234 L634.6987,453.9766 Q634.6987,454.5859 634.4644,454.8516 Q634.23,455.1172 633.855,455.1172 Q633.5112,455.1172 633.3081,454.9141 Q633.105,454.7266 632.9956,454.2109 Q632.9487,453.8516 632.7612,453.6641 Q632.4331,453.2891 631.8237,453.0703 Q631.2144,452.8516 630.5894,452.8516 Q629.8237,452.8516 629.1909,453.1797 Q628.5581,453.5078 628.0659,454.2578 Q627.5737,455.0078 627.5737,456.0391 L627.5737,457.1328 Q627.5737,458.3672 628.4644,459.1875 Q629.355,460.0078 630.9487,460.0078 Q631.8862,460.0078 632.5425,459.7578 Q632.9331,459.6016 633.355,459.1641 Q633.6206,458.8984 633.769,458.8203 Q633.9175,458.7422 634.1206,458.7422 Q634.4487,458.7422 634.7065,459 Q634.9644,459.2578 634.9644,459.6016 Q634.9644,459.9453 634.6206,460.3516 Q634.1206,460.9297 633.3237,461.2578 Q632.2456,461.7109 630.9487,461.7109 Q629.4331,461.7109 628.23,461.0859 Q627.2456,460.5859 626.5581,459.5156 Q625.8706,458.4453 625.8706,457.1641 L625.8706,456.0078 Q625.8706,454.6797 626.4878,453.5313 Q627.105,452.3828 628.1987,451.7656 Q629.2925,451.1484 630.5269,451.1484 Q631.2612,451.1484 631.9097,451.3125 Q632.5581,451.4766 633.105,451.8359 Z " fill="#000000"/><text fill="#000000" font-family="sans-serif" font-size="12" font-style="italic" lengthAdjust="spacing" textLength="66.709" x="651.7437" y="452.0664">&#171;referencia&#187;</text><text fill="#000000" font-family="sans-serif" font-size="14" lengthAdjust="spacing" textLength="73.1445" x="648.5259" y="469.2363">PortfolioRef</text><line style="stroke:#181818;stroke-width:0.5;" x1="597.5" x2="742.5098" y1="477.3125" y2="477.3125"/><line style="stroke:#181818;stroke-width:0.5;" x1="597.5" x2="742.5098" y1="485.3125" y2="485.3125"/><text fill="#000000" font-family="sans-serif" font-size="14" lengthAdjust="spacing" textLength="135.0098" x="602.5" y="503.8457">+simulatePathPnL(...)</text></g><!--class InterestRateModelRef--><g id="elem_InterestRateModelRef"><rect codeLine="30" fill="#F1F1F1" height="93.9219" id="InterestRateModelRef" rx="2.5" ry="2.5" style="stroke:#181818;stroke-width:0.5;" width="194.4512" x="879" y="272.6094"/><ellipse cx="905.8226" cy="293.9609" fill="#ADD1B2" rx="11" ry="11" style="stroke:#181818;stroke-width:1;"/><path d="M908.5882,289.8359 Q908.7445,289.6172 908.932,289.5078 Q909.1195,289.3984 909.3382,289.3984 Q909.7132,289.3984 909.9476,289.6563 Q910.182,289.9141 910.182,290.5234 L910.182,291.9766 Q910.182,292.5859 909.9476,292.8516 Q909.7132,293.1172 909.3382,293.1172 Q908.9945,293.1172 908.7914,292.9141 Q908.5882,292.7266 908.4789,292.2109 Q908.432,291.8516 908.2445,291.6641 Q907.9164,291.2891 907.307,291.0703 Q906.6976,290.8516 906.0726,290.8516 Q905.307,290.8516 904.6742,291.1797 Q904.0414,291.5078 903.5492,292.2578 Q903.057,293.0078 903.057,294.0391 L903.057,295.1328 Q903.057,296.3672 903.9476,297.1875 Q904.8382,298.0078 906.432,298.0078 Q907.3695,298.0078 908.0257,297.7578 Q908.4164,297.6016 908.8382,297.1641 Q909.1039,296.8984 909.2523,296.8203 Q909.4007,296.7422 909.6039,296.7422 Q909.932,296.7422 910.1898,297 Q910.4476,297.2578 910.4476,297.6016 Q910.4476,297.9453 910.1039,298.3516 Q909.6039,298.9297 908.807,299.2578 Q907.7289,299.7109 906.432,299.7109 Q904.9164,299.7109 903.7132,299.0859 Q902.7289,298.5859 902.0414,297.5156 Q901.3539,296.4453 901.3539,295.1641 L901.3539,294.0078 Q901.3539,292.6797 901.971,291.5313 Q902.5882,290.3828 903.682,289.7656 Q904.7757,289.1484 906.0101,289.1484 Q906.7445,289.1484 907.3929,289.3125 Q908.0414,289.4766 908.5882,289.8359 Z " fill="#000000"/><text fill="#000000" font-family="sans-serif" font-size="12" font-style="italic" lengthAdjust="spacing" textLength="66.709" x="957.1847" y="290.0664">&#171;referencia&#187;</text><text fill="#000000" font-family="sans-serif" font-size="14" lengthAdjust="spacing" textLength="136.1787" x="922.4499" y="307.2363">InterestRateModelRef</text><line style="stroke:#181818;stroke-width:0.5;" x1="880" x2="1072.4512" y1="315.3125" y2="315.3125"/><line style="stroke:#181818;stroke-width:0.5;" x1="880" x2="1072.4512" y1="323.3125" y2="323.3125"/><text fill="#000000" font-family="sans-serif" font-size="14" lengthAdjust="spacing" textLength="173.1338" x="885" y="341.8457">+simulateShortRatePath(...)</text><text fill="#000000" font-family="sans-serif" font-size="14" lengthAdjust="spacing" textLength="182.4512" x="885" y="359.4551">+discountFactorFromPath(...)</text></g><g id="elem_GMN34"><path d="M779,426.6094 L779,518.3672 A0,0 0 0 0 779,518.3672 L1078.897,518.3672 A0,0 0 0 0 1078.897,518.3672 L1078.897,436.6094 L1068.897,426.6094 L826,426.6094 L822,370.1294 L818,426.6094 L779,426.6094 A0,0 0 0 0 779,426.6094 " fill="#FEFFDD" style="stroke:#181818;stroke-width:0.5;"/><path d="M1068.897,426.6094 L1068.897,436.6094 L1078.897,436.6094 L1068.897,426.6094 " fill="#FEFFDD" style="stroke:#181818;stroke-width:0.5;"/><text fill="#000000" font-family="sans-serif" font-size="13" font-weight="bold" lengthAdjust="spacing" textLength="162.5" x="785" y="445.1045">runBatchImpl (por nucleo)</text><text fill="#000000" font-family="sans-serif" font-size="13" lengthAdjust="spacing" textLength="175.9443" x="785" y="461.4561">Cholesky Z_corr = L * Z_indep</text><text fill="#000000" font-family="sans-serif" font-size="13" lengthAdjust="spacing" textLength="175.9507" x="785" y="477.8076">MT / antiteticas / Sobol+bridge</text><text fill="#000000" font-family="sans-serif" font-size="13" lengthAdjust="spacing" textLength="252.1924" x="785" y="494.1592">simulatePathPnL + VaR/ES (+ SE opcional)</text><text fill="#000000" font-family="sans-serif" font-size="13" lengthAdjust="spacing" textLength="278.897" x="785" y="510.5107">numFactores = numActivos + (rateModel ? 1 : 0)</text></g><g id="elem_GMN37"><path d="M1805.5,579.6094 L1805.5,638.6641 L2104.0068,638.6641 L2104.0068,589.6094 L2094.0068,579.6094 L1805.5,579.6094 " fill="#FEFFDD" style="stroke:#181818;stroke-width:0.5;"/><path d="M2094.0068,579.6094 L2094.0068,589.6094 L2104.0068,589.6094 L2094.0068,579.6094 " fill="#FEFFDD" style="stroke:#181818;stroke-width:1;"/><text fill="#000000" font-family="sans-serif" font-size="13" lengthAdjust="spacing" textLength="153.5688" x="1811.5" y="598.1045">Solo con rngType = Sobol.</text><text fill="#000000" font-family="sans-serif" font-size="13" lengthAdjust="spacing" textLength="277.5068" x="1811.5" y="614.4561">Engine genera N(0,1) con BoostSobolGenerator</text><text fill="#000000" font-family="sans-serif" font-size="13" lengthAdjust="spacing" textLength="256.5278" x="1811.5" y="630.8076">y aplica bridge por factor antes de Cholesky.</text></g><g id="elem_GMN40"><path d="M596.5,596.1094 L596.5,622.4609 A0,0 0 0 0 596.5,622.4609 L817.6416,622.4609 A0,0 0 0 0 817.6416,622.4609 L817.6416,606.1094 L807.6416,596.1094 L674,596.1094 L670,510.6294 L666,596.1094 L596.5,596.1094 A0,0 0 0 0 596.5,596.1094 " fill="#FEFFDD" style="stroke:#181818;stroke-width:0.5;"/><path d="M807.6416,596.1094 L807.6416,606.1094 L817.6416,606.1094 L807.6416,596.1094 " fill="#FEFFDD" style="stroke:#181818;stroke-width:0.5;"/><text fill="#000000" font-family="sans-serif" font-size="13" lengthAdjust="spacing" textLength="200.1416" x="602.5" y="614.6045">Clase Portfolio (diagrama dominio)</text></g><g id="elem_GMN43"><path d="M1803.5,451.1094 L1803.5,493.8125 L2032.5889,493.8125 L2032.5889,461.1094 L2022.5889,451.1094 L1803.5,451.1094 " fill="#FEFFDD" style="stroke:#181818;stroke-width:0.5;"/><path d="M2022.5889,451.1094 L2022.5889,461.1094 L2032.5889,461.1094 L2022.5889,451.1094 " fill="#FEFFDD" style="stroke:#181818;stroke-width:1;"/><text fill="#000000" font-family="sans-serif" font-size="13" lengthAdjust="spacing" textLength="208.0889" x="1809.5" y="469.6045">InterestRateModel / HullWhiteModel</text><text fill="#000000" font-family="sans-serif" font-size="13" lengthAdjust="spacing" textLength="111.9917" x="1809.5" y="485.9561">(diagrama dominio)</text></g><!--link RiskCalculator to StandardErrorOptions--><g id="link_RiskCalculator_StandardErrorOptions"><path codeLine="57" d="M1314.75,523.4394 C1314.75,536.0194 1314.75,543.4494 1314.75,555.8494 " fill="none" id="RiskCalculator-to-StandardErrorOptions" style="stroke:#181818;stroke-width:1;"/><polygon fill="#181818" points="1314.75,561.8494,1318.75,552.8494,1314.75,556.8494,1310.75,552.8494,1314.75,561.8494" style="stroke:#181818;stroke-width:1;"/></g><!--link RiskCalculator to MonteCarloErrorPolicy--><g id="link_RiskCalculator_MonteCarloErrorPolicy"><path codeLine="58" d="M1461.83,523.3294 C1461.83,541.7394 1461.83,558.1094 1461.83,558.1094 C1461.83,558.1094 1529.09,558.1094 1591.47,558.1094 " fill="none" id="RiskCalculator-to-MonteCarloErrorPolicy" style="stroke:#181818;stroke-width:1;stroke-dasharray:7.0,7.0;"/><polygon fill="#181818" points="1597.47,558.1094,1588.47,554.1094,1592.47,558.1094,1588.47,562.1094,1597.47,558.1094" style="stroke:#181818;stroke-width:1;"/></g><!--link RiskCalculator to RiskEstimate--><g id="link_RiskCalculator_RiskEstimate"><path codeLine="59" d="M1438.67,523.4394 C1438.67,539.1994 1438.67,550.2994 1438.67,565.0394 " fill="none" id="RiskCalculator-to-RiskEstimate" style="stroke:#181818;stroke-width:1;stroke-dasharray:7.0,7.0;"/><polygon fill="#181818" points="1438.67,571.0394,1442.67,562.0394,1438.67,566.0394,1434.67,562.0394,1438.67,571.0394" style="stroke:#181818;stroke-width:1;"/></g><!--reverse link RandomGenerator to MersenneTwisterGen--><g id="link_RandomGenerator_MersenneTwisterGen"><path codeLine="75" d="M193.5,361.8494 C193.5,390.4994 193.5,419.8794 193.5,448.4794 " fill="none" id="RandomGenerator-backto-MersenneTwisterGen" style="stroke:#181818;stroke-width:1;stroke-dasharray:7.0,7.0;"/><polygon fill="none" points="193.5,343.8494,187.5,361.8494,199.5,361.8494,193.5,343.8494" style="stroke:#181818;stroke-width:1;"/></g><!--reverse link RandomGenerator to BoostSobolGenerator--><g id="link_RandomGenerator_BoostSobolGenerator"><path codeLine="76" d="M285.25,361.8494 C285.25,387.6394 285.25,410.5894 285.25,439.3694 " fill="none" id="RandomGenerator-backto-BoostSobolGenerator" style="stroke:#181818;stroke-width:1;stroke-dasharray:7.0,7.0;"/><polygon fill="none" points="285.25,343.8494,279.25,361.8494,291.25,361.8494,285.25,343.8494" style="stroke:#181818;stroke-width:1;"/></g><!--link BoostSobolGenerator to MathUtils--><g id="link_BoostSobolGenerator_MathUtils"><path codeLine="77" d="M272.33,501.1094 C209.05,501.1094 133,501.1094 133,501.1094 C133,501.1094 133,538.0894 133,569.8294 " fill="none" id="BoostSobolGenerator-to-MathUtils" style="stroke:#181818;stroke-width:1;stroke-dasharray:7.0,7.0;"/><polygon fill="#181818" points="133,575.8294,137,566.8294,133,570.8294,129,566.8294,133,575.8294" style="stroke:#181818;stroke-width:1;"/></g><!--link BoostSobolGenerator to BrownianBridge--><g id="link_BoostSobolGenerator_BrownianBridge"><path codeLine="78" d="M356,505.6494 C356,526.9594 356,548.5594 356,569.8994 " fill="none" id="BoostSobolGenerator-to-BrownianBridge" style="stroke:#181818;stroke-width:1;stroke-dasharray:7.0,7.0;"/><polygon fill="#181818" points="356,575.8994,360,566.8994,356,570.8994,352,566.8994,356,575.8994" style="stroke:#181818;stroke-width:1;"/><text fill="#000000" font-family="sans-serif" font-size="13" lengthAdjust="spacing" textLength="81.6753" x="274" y="537.2745">pipeline Sobol</text></g><!--link SimConfig to MonteCarloEngine--><g id="link_SimConfig_MonteCarloEngine"><path codeLine="81" d="M720,227.8394 C720,241.9894 720,250.1394 720,262.9494 " fill="none" id="SimConfig-to-MonteCarloEngine" style="stroke:#181818;stroke-width:1;"/><polygon fill="#181818" points="720,268.9494,724,259.9494,720,263.9494,716,259.9494,720,268.9494" style="stroke:#181818;stroke-width:1;"/><text fill="#000000" font-family="sans-serif" font-size="13" lengthAdjust="spacing" textLength="72.979" x="647" y="244.8945">(1) configura</text></g><!--link MonteCarloEngine to RiskCalculator--><g id="link_MonteCarloEngine_RiskCalculator"><path codeLine="82" d="M800.5,370.2094 C800.5,384.4394 800.5,396.1094 800.5,396.1094 C800.5,396.1094 1367,396.1094 1367,396.1094 C1367,396.1094 1367,401.7794 1367,416.0094 " fill="none" id="MonteCarloEngine-to-RiskCalculator" style="stroke:#181818;stroke-width:1;"/><polygon fill="#181818" points="1367,422.0094,1371,413.0094,1367,417.0094,1363,413.0094,1367,422.0094" style="stroke:#181818;stroke-width:1;"/><text fill="#000000" font-family="sans-serif" font-size="13" lengthAdjust="spacing" textLength="71.5381" x="1011.75" y="392.6045">(2) devuelve</text></g><!--link MonteCarloEngine to PKG_RNG--><!--link MonteCarloEngine to PKG_RNG--><g id="link_MonteCarloEngine_PKG_RNG"><path codeLine="88" d="M596.39,283.1094 C590.0716,283.1094 583.5803,283.1094 576.9331,283.1094 C576.1022,283.1094 581.2688,283.1094 580.4331,283.1094 " fill="none" id="MonteCarloEngine-to-PKG_RNG" style="stroke:#181818;stroke-width:1;stroke-dasharray:7.0,7.0;"/><polygon fill="#181818" points="574.4331,283.1094,583.4331,287.1094,579.4331,283.1094,583.4331,279.1094,574.4331,283.1094" style="stroke:#181818;stroke-width:1;"/><text fill="#000000" font-family="sans-serif" font-size="13" lengthAdjust="spacing" textLength="53.46" x="288.65" y="297.6045">usa RNG</text></g><!--link InterestRateModelRef to MonteCarloEngine--><!--link MonteCarloEngine to InterestRateModelRef--><g id="link_MonteCarloEngine_InterestRateModelRef"><path codeLine="91" d="M843.5,336.1094 C855.39,336.1094 861.33,336.1094 872.92,336.1094 " fill="none" id="MonteCarloEngine-to-InterestRateModelRef" style="stroke:#181818;stroke-width:1;stroke-dasharray:7.0,7.0;"/><polygon fill="#181818" points="878.92,336.1094,869.92,332.1094,873.92,336.1094,869.92,340.1094,878.92,336.1094" style="stroke:#181818;stroke-width:1;"/><text fill="#000000" font-family="sans-serif" font-size="13" lengthAdjust="spacing" textLength="64.3018" x="845.71" y="350.6045">tipos (opc.)</text></g><!--link PortfolioRef to MonteCarloEngine--><!--link MonteCarloEngine to PortfolioRef--><g id="link_MonteCarloEngine_PortfolioRef"><path codeLine="90" d="M645.5,370.1294 C645.5,391.0194 645.5,408.8394 645.5,428.2594 " fill="none" id="MonteCarloEngine-to-PortfolioRef" style="stroke:#181818;stroke-width:1;stroke-dasharray:7.0,7.0;"/><polygon fill="#181818" points="645.5,434.2594,649.5,425.2594,645.5,429.2594,641.5,425.2594,645.5,434.2594" style="stroke:#181818;stroke-width:1;"/><text fill="#000000" font-family="sans-serif" font-size="13" lengthAdjust="spacing" textLength="64.3081" x="580.5" y="398.6945">simula PnL</text></g><!--link MonteCarloEngine to BrownianBridge--><g id="link_MonteCarloEngine_BrownianBridge"><path codeLine="89" d="M596.32,362.1094 C535.67,362.1094 475.5,362.1094 475.5,362.1094 C475.5,362.1094 475.5,502.7494 475.5,570.0494 " fill="none" id="MonteCarloEngine-to-BrownianBridge" style="stroke:#181818;stroke-width:1;stroke-dasharray:7.0,7.0;"/><polygon fill="#181818" points="475.5,576.0494,479.5,567.0494,475.5,571.0494,471.5,567.0494,475.5,576.0494" style="stroke:#181818;stroke-width:1;"/><text fill="#000000" font-family="sans-serif" font-size="13" lengthAdjust="spacing" textLength="81.6563" x="393.5" y="405.1645">bridge (Sobol)</text></g><!--link BrownianBridge to GMN37--><g id="link_BrownianBridge_GMN37"><path d="M511.5,576.0994 C511.5,557.5594 511.5,538.1094 511.5,538.1094 C511.5,538.1094 1919,538.1094 1919,538.1094 C1919,538.1094 1919,559.9594 1919,579.4094 " fill="none" id="BrownianBridge-GMN37" style="stroke:#181818;stroke-width:1;stroke-dasharray:7.0,7.0;"/></g><!--link InterestRateModelRef to GMN43--><g id="link_InterestRateModelRef_GMN43"><path d="M1073.26,320.1094 C1313.94,320.1094 1918,320.1094 1918,320.1094 C1918,320.1094 1918,409.0494 1918,451.0794 " fill="none" id="InterestRateModelRef-GMN43" style="stroke:#181818;stroke-width:1;stroke-dasharray:7.0,7.0;"/></g><!--SRC=[NOr12i8m44NtESLtLOjGgalNti03X6aIma0o4z8MwUqjRHLn-_vx_0OFfbWf4vpcaiAa288R2aKM6d7scbbOSK7MIMjh6ZmfiQSxvfpiM5rN97wz5ik7sxw_xjjHcXEBIxCFct44Tb2_T6KbnaXuhR_XJzpg7-qD]--></g></svg>