<svg xmlns="http://www.w3.org/2000/svg" xmlns:xlink="http://www.w3.org/1999/xlink" contentStyleType="text/css" height="582px" preserveAspectRatio="none" style="width:1924px;height:582px;background:#FFFFFF;" version="1.1" viewBox="0 0 1924 582" width="1924px" zoomAndPan="magnify"><title>Modelo de dominio</title><defs/><g><text fill="#000000" font-family="sans-serif" font-size="14" font-weight="bold" lengthAdjust="spacing" textLength="127.5449" x="891.7202" y="24.5332">Modelo de dominio</text><!--cluster PKG_ASSET--><g id="cluster_PKG_ASSET"><rect fill="none" height="381.5" rx="2.5" ry="2.5" style="stroke:#000000;stroke-width:1.5;" width="963" x="303" y="45.6094"/><text fill="#000000" font-family="sans-serif" font-size="14" font-weight="bold" lengthAdjust="spacing" textLength="50.5723" x="759.2139" y="62.1426">Activos</text></g><!--cluster PKG_CART--><g id="cluster_PKG_CART"><rect fill="none" height="323" rx="2.5" ry="2.5" style="stroke:#000000;stroke-width:1.5;" width="256" x="7" y="249.6094"/><text fill="#000000" font-family="sans-serif" font-size="14" font-weight="bold" lengthAdjust="spacing" textLength="49.0273" x="110.4863" y="266.1426">Cartera</text></g><!--cluster PKG_IR--><g id="cluster_PKG_IR"><rect fill="none" height="521.5" rx="2.5" ry="2.5" style="stroke:#000000;stroke-width:1.5;" width="266" x="1306" y="54.6094"/><text fill="#000000" font-family="sans-serif" font-size="14" font-weight="bold" lengthAdjust="spacing" textLength="107.3584" x="1385.3208" y="71.1426">Tipos de interes</text></g><!--class Asset--><g id="elem_Asset"><rect codeLine="16" fill="#F1F1F1" height="136.0469" id="Asset" rx="2.5" ry="2.5" style="stroke:#181818;stroke-width:0.5;" width="192.8994" x="846.5" y="89.6094"/><ellipse cx="921.1929" cy="105.6094" fill="#A9DCDF" rx="11" ry="11" style="stroke:#181818;stroke-width:1;"/><path d="M923.3804,107.375 L919.2397,107.375 L918.8179,108.4063 L919.2397,108.4063 Q919.8491,108.4063 920.1147,108.6406 Q920.3804,108.875 920.3804,109.2656 Q920.3804,109.6406 920.1147,109.875 Q919.8491,110.1094 919.2397,110.1094 L916.9429,110.1094 Q916.3335,110.1094 916.0757,109.875 Q915.8179,109.6406 915.8179,109.25 Q915.8179,108.875 916.0913,108.6328 Q916.3647,108.3906 916.9897,108.4063 L919.6616,101.75 L918.5522,101.75 Q917.9429,101.75 917.6772,101.5156 Q917.4116,101.2813 917.4116,100.8906 Q917.4116,100.5156 917.6772,100.2813 Q917.9429,100.0469 918.5522,100.0469 L922.2241,100.0469 L925.6147,108.4063 Q926.2085,108.4063 926.396,108.5469 Q926.7866,108.8125 926.7866,109.2656 Q926.7866,109.6406 926.5288,109.875 Q926.271,110.1094 925.6616,110.1094 L923.3647,110.1094 Q922.7554,110.1094 922.4897,109.875 Q922.2241,109.6406 922.2241,109.25 Q922.2241,108.875 922.4897,108.6406 Q922.7554,108.4063 923.3647,108.4063 L923.7866,108.4063 L923.3804,107.375 Z M922.6616,105.6719 L921.3022,102.2969 L919.9272,105.6719 L922.6616,105.6719 Z " fill="#000000"/><text fill="#000000" font-family="sans-serif" font-size="14" font-style="italic" lengthAdjust="spacing" textLength="35.0137" x="941.6929" y="111.3379">Asset</text><line style="stroke:#181818;stroke-width:0.5;" x1="847.5" x2="1038.3994" y1="121.6094" y2="121.6094"/><text fill="#000000" font-family="sans-serif" font-size="14" lengthAdjust="spacing" textLength="114.3857" x="852.5" y="140.1426">#name, initialPrice</text><line style="stroke:#181818;stroke-width:0.5;" x1="847.5" x2="1038.3994" y1="147.2188" y2="147.2188"/><text fill="#000000" font-family="sans-serif" font-size="14" lengthAdjust="spacing" textLength="175.4512" x="852.5" y="165.752">+getName(), getInitialPrice()</text><text fill="#000000" font-family="sans-serif" font-size="14" font-style="italic" lengthAdjust="spacing" textLength="147.4512" x="852.5" y="183.3613">+simulateFinalValue(...)</text><text fill="#000000" font-family="sans-serif" font-size="14" font-style="italic" lengthAdjust="spacing" textLength="113.2373" x="852.5" y="200.9707">+generatePath(...)</text><text fill="#000000" font-family="sans-serif" font-size="14" lengthAdjust="spacing" textLength="180.8994" x="852.5" y="218.5801">+recordsIntermediatePrices()</text></g><!--class GBMAsset--><g id="elem_GBMAsset"><rect codeLine="24" fill="#F1F1F1" height="65.6094" id="GBMAsset" rx="2.5" ry="2.5" style="stroke:#181818;stroke-width:0.5;" width="142.7168" x="871.5" y="319.6094"/><ellipse cx="906.2161" cy="335.6094" fill="#ADD1B2" rx="11" ry="11" style="stroke:#181818;stroke-width:1;"/><path d="M908.9817,331.4844 Q909.1379,331.2656 909.3254,331.1563 Q909.5129,331.0469 909.7317,331.0469 Q910.1067,331.0469 910.3411,331.3047 Q910.5754,331.5625 910.5754,332.1719 L910.5754,333.625 Q910.5754,334.2344 910.3411,334.5 Q910.1067,334.7656 909.7317,334.7656 Q909.3879,334.7656 909.1848,334.5625 Q908.9817,334.375 908.8723,333.8594 Q908.8254,333.5 908.6379,333.3125 Q908.3098,332.9375 907.7004,332.7188 Q907.0911,332.5 906.4661,332.5 Q905.7004,332.5 905.0676,332.8281 Q904.4348,333.1563 903.9426,333.9063 Q903.4504,334.6563 903.4504,335.6875 L903.4504,336.7813 Q903.4504,338.0156 904.3411,338.8359 Q905.2317,339.6563 906.8254,339.6563 Q907.7629,339.6563 908.4192,339.4063 Q908.8098,339.25 909.2317,338.8125 Q909.4973,338.5469 909.6458,338.4688 Q909.7942,338.3906 909.9973,338.3906 Q910.3254,338.3906 910.5833,338.6484 Q910.8411,338.9063 910.8411,339.25 Q910.8411,339.5938 910.4973,340 Q909.9973,340.5781 909.2004,340.9063 Q908.1223,341.3594 906.8254,341.3594 Q905.3098,341.3594 904.1067,340.7344 Q903.1223,340.2344 902.4348,339.1641 Q901.7473,338.0938 901.7473,336.8125 L901.7473,335.6563 Q901.7473,334.3281 902.3645,333.1797 Q902.9817,332.0313 904.0754,331.4141 Q905.1692,330.7969 906.4036,330.7969 Q907.1379,330.7969 907.7864,330.9609 Q908.4348,331.125 908.9817,331.4844 Z " fill="#000000"/><text fill="#000000" font-family="sans-serif" font-size="14" lengthAdjust="spacing" textLength="66.9033" x="924.5974" y="341.3379">GBMAsset</text><line style="stroke:#181818;stroke-width:0.5;" x1="872.5" x2="1013.2168" y1="351.6094" y2="351.6094"/><text fill="#000000" font-family="sans-serif" font-size="14" lengthAdjust="spacing" textLength="130.7168" x="877.5" y="370.1426">-driftSpread, volatility</text><line style="stroke:#181818;stroke-width:0.5;" x1="872.5" x2="1013.2168" y1="377.2188" y2="377.2188"/></g><!--class EuropeanOption--><g id="elem_EuropeanOption"><rect codeLine="28" fill="#F1F1F1" height="83.2188" id="EuropeanOption" rx="2.5" ry="2.5" style="stroke:#181818;stroke-width:0.5;" width="187.0684" x="1054.5" y="311.1094"/><ellipse cx="1093.3966" cy="327.1094" fill="#ADD1B2" rx="11" ry="11" style="stroke:#181818;stroke-width:1;"/><path d="M1096.1622,322.9844 Q1096.3185,322.7656 1096.506,322.6563 Q1096.6935,322.5469 1096.9122,322.5469 Q1097.2872,322.5469 1097.5216,322.8047 Q1097.756,323.0625 1097.756,323.6719 L1097.756,325.125 Q1097.756,325.7344 1097.5216,326 Q1097.2872,326.2656 1096.9122,326.2656 Q1096.5685,326.2656 1096.3653,326.0625 Q1096.1622,325.875 1096.0528,325.3594 Q1096.006,325 1095.8185,324.8125 Q1095.4903,324.4375 1094.881,324.2188 Q1094.2716,324 1093.6466,324 Q1092.881,324 1092.2481,324.3281 Q1091.6153,324.6563 1091.1231,325.4063 Q1090.631,326.1563 1090.631,327.1875 L1090.631,328.2813 Q1090.631,329.5156 1091.5216,330.3359 Q1092.4122,331.1563 1094.006,331.1563 Q1094.9435,331.1563 1095.5997,330.9063 Q1095.9903,330.75 1096.4122,330.3125 Q1096.6778,330.0469 1096.8263,329.9688 Q1096.9747,329.8906 1097.1778,329.8906 Q1097.506,329.8906 1097.7638,330.1484 Q1098.0216,330.4063 1098.0216,330.75 Q1098.0216,331.0938 1097.6778,331.5 Q1097.1778,332.0781 1096.381,332.4063 Q1095.3028,332.8594 1094.006,332.8594 Q1092.4903,332.8594 1091.2872,332.2344 Q1090.3028,331.7344 1089.6153,330.6641 Q1088.9278,329.5938 1088.9278,328.3125 L1088.9278,327.1563 Q1088.9278,325.8281 1089.545,324.6797 Q1090.1622,323.5313 1091.256,322.9141 Q1092.3497,322.2969 1093.5841,322.2969 Q1094.3185,322.2969 1094.9669,322.4609 Q1095.6153,322.625 1096.1622,322.9844 Z " fill="#000000"/><text fill="#000000" font-family="sans-serif" font-size="14" lengthAdjust="spacing" textLength="101.9648" x="1112.7069" y="332.8379">EuropeanOption</text><line style="stroke:#181818;stroke-width:0.5;" x1="1055.5" x2="1240.5684" y1="343.1094" y2="343.1094"/><text fill="#000000" font-family="sans-serif" font-size="14" lengthAdjust="spacing" textLength="175.0684" x="1060.5" y="361.6426">-underlyingInitialPrice, strike</text><text fill="#000000" font-family="sans-serif" font-size="14" lengthAdjust="spacing" textLength="164.958" x="1060.5" y="379.252">-driftSpread, volatility, type</text><line style="stroke:#181818;stroke-width:0.5;" x1="1055.5" x2="1240.5684" y1="386.3281" y2="386.3281"/></g><!--class BarrierOption--><g id="elem_BarrierOption"><rect codeLine="33" fill="#F1F1F1" height="83.2188" id="BarrierOption" rx="2.5" ry="2.5" style="stroke:#181818;stroke-width:0.5;" width="235.3027" x="335.5" y="311.1094"/><ellipse cx="407.2739" cy="327.1094" fill="#ADD1B2" rx="11" ry="11" style="stroke:#181818;stroke-width:1;"/><path d="M410.0396,322.9844 Q410.1958,322.7656 410.3833,322.6563 Q410.5708,322.5469 410.7896,322.5469 Q411.1646,322.5469 411.3989,322.8047 Q411.6333,323.0625 411.6333,323.6719 L411.6333,325.125 Q411.6333,325.7344 411.3989,326 Q411.1646,326.2656 410.7896,326.2656 Q410.4458,326.2656 410.2427,326.0625 Q410.0396,325.875 409.9302,325.3594 Q409.8833,325 409.6958,324.8125 Q409.3677,324.4375 408.7583,324.2188 Q408.1489,324 407.5239,324 Q406.7583,324 406.1255,324.3281 Q405.4927,324.6563 405.0005,325.4063 Q404.5083,326.1563 404.5083,327.1875 L404.5083,328.2813 Q404.5083,329.5156 405.3989,330.3359 Q406.2896,331.1563 407.8833,331.1563 Q408.8208,331.1563 409.4771,330.9063 Q409.8677,330.75 410.2896,330.3125 Q410.5552,330.0469 410.7036,329.9688 Q410.8521,329.8906 411.0552,329.8906 Q411.3833,329.8906 411.6411,330.1484 Q411.8989,330.4063 411.8989,330.75 Q411.8989,331.0938 411.5552,331.5 Q411.0552,332.0781 410.2583,332.4063 Q409.1802,332.8594 407.8833,332.8594 Q406.3677,332.8594 405.1646,332.2344 Q404.1802,331.7344 403.4927,330.6641 Q402.8052,329.5938 402.8052,328.3125 L402.8052,327.1563 Q402.8052,325.8281 403.4224,324.6797 Q404.0396,323.5313 405.1333,322.9141 Q406.2271,322.2969 407.4614,322.2969 Q408.1958,322.2969 408.8442,322.4609 Q409.4927,322.625 410.0396,322.9844 Z " fill="#000000"/><text fill="#000000" font-family="sans-serif" font-size="14" lengthAdjust="spacing" textLength="83.2549" x="427.7739" y="332.8379">BarrierOption</text><line style="stroke:#181818;stroke-width:0.5;" x1="336.5" x2="569.8027" y1="343.1094" y2="343.1094"/><text fill="#000000" font-family="sans-serif" font-size="14" lengthAdjust="spacing" textLength="223.3027" x="341.5" y="361.6426">-underlyingInitialPrice, strike, barrier</text><text fill="#000000" font-family="sans-serif" font-size="14" lengthAdjust="spacing" textLength="130.7168" x="341.5" y="379.252">-driftSpread, volatility</text><line style="stroke:#181818;stroke-width:0.5;" x1="336.5" x2="569.8027" y1="386.3281" y2="386.3281"/></g><!--class CouponBond--><g id="elem_CouponBond"><rect codeLine="38" fill="#F1F1F1" height="100.8281" id="CouponBond" rx="2.5" ry="2.5" style="stroke:#181818;stroke-width:0.5;" width="219.7783" x="611" y="302.1094"/><ellipse cx="675.7705" cy="318.1094" fill="#ADD1B2" rx="11" ry="11" style="stroke:#181818;stroke-width:1;"/><path d="M678.5361,313.9844 Q678.6924,313.7656 678.8799,313.6563 Q679.0674,313.5469 679.2861,313.5469 Q679.6611,313.5469 679.8955,313.8047 Q680.1299,314.0625 680.1299,314.6719 L680.1299,316.125 Q680.1299,316.7344 679.8955,317 Q679.6611,317.2656 679.2861,317.2656 Q678.9424,317.2656 678.7393,317.0625 Q678.5361,316.875 678.4268,316.3594 Q678.3799,316 678.1924,315.8125 Q677.8643,315.4375 677.2549,315.2188 Q676.6455,315 676.0205,315 Q675.2549,315 674.6221,315.3281 Q673.9893,315.6563 673.4971,316.4063 Q673.0049,317.1563 673.0049,318.1875 L673.0049,319.2813 Q673.0049,320.5156 673.8955,321.3359 Q674.7861,322.1563 676.3799,322.1563 Q677.3174,322.1563 677.9736,321.9063 Q678.3643,321.75 678.7861,321.3125 Q679.0518,321.0469 679.2002,320.9688 Q679.3486,320.8906 679.5518,320.8906 Q679.8799,320.8906 680.1377,321.1484 Q680.3955,321.4063 680.3955,321.75 Q680.3955,322.0938 680.0518,322.5 Q679.5518,323.0781 678.7549,323.4063 Q677.6768,323.8594 676.3799,323.8594 Q674.8643,323.8594 673.6611,323.2344 Q672.6768,322.7344 671.9893,321.6641 Q671.3018,320.5938 671.3018,319.3125 L671.3018,318.1563 Q671.3018,316.8281 671.9189,315.6797 Q672.5361,314.5313 673.6299,313.9141 Q674.7236,313.2969 675.958,313.2969 Q676.6924,313.2969 677.3408,313.4609 Q677.9893,313.625 678.5361,313.9844 Z " fill="#000000"/><text fill="#000000" font-family="sans-serif" font-size="14" lengthAdjust="spacing" textLength="81.7373" x="696.2705" y="323.8379">CouponBond</text><line style="stroke:#181818;stroke-width:0.5;" x1="612" x2="829.7783" y1="334.1094" y2="334.1094"/><text fill="#000000" font-family="sans-serif" font-size="14" lengthAdjust="spacing" textLength="207.7783" x="617" y="352.6426">-faceValue, couponRate, maturity</text><text fill="#000000" font-family="sans-serif" font-size="14" lengthAdjust="spacing" textLength="134.5928" x="617" y="370.252">-currentYTM, yieldVol</text><line style="stroke:#181818;stroke-width:0.5;" x1="612" x2="829.7783" y1="377.3281" y2="377.3281"/><text fill="#000000" font-family="sans-serif" font-size="14" lengthAdjust="spacing" textLength="132.2822" x="617" y="395.8613">-rateModel (opcional)</text></g><!--class Position--><g id="elem_Position"><rect codeLine="52" fill="#F1F1F1" height="93.9219" id="Position" rx="2.5" ry="2.5" style="stroke:#181818;stroke-width:0.5;" width="179.7129" x="58" y="454.6094"/><ellipse cx="118.7031" cy="475.9609" fill="#ADD1B2" rx="11" ry="11" style="stroke:#181818;stroke-width:1;"/><path d="M121.4688,471.8359 Q121.625,471.6172 121.8125,471.5078 Q122,471.3984 122.2188,471.3984 Q122.5938,471.3984 122.8281,471.6563 Q123.0625,471.9141 123.0625,472.5234 L123.0625,473.9766 Q123.0625,474.5859 122.8281,474.8516 Q122.5938,475.1172 122.2188,475.1172 Q121.875,475.1172 121.6719,474.9141 Q121.4688,474.7266 121.3594,474.2109 Q121.3125,473.8516 121.125,473.6641 Q120.7969,473.2891 120.1875,473.0703 Q119.5781,472.8516 118.9531,472.8516 Q118.1875,472.8516 117.5547,473.1797 Q116.9219,473.5078 116.4297,474.2578 Q115.9375,475.0078 115.9375,476.0391 L115.9375,477.1328 Q115.9375,478.3672 116.8281,479.1875 Q117.7188,480.0078 119.3125,480.0078 Q120.25,480.0078 120.9063,479.7578 Q121.2969,479.6016 121.7188,479.1641 Q121.9844,478.8984 122.1328,478.8203 Q122.2813,478.7422 122.4844,478.7422 Q122.8125,478.7422 123.0703,479 Q123.3281,479.2578 123.3281,479.6016 Q123.3281,479.9453 122.9844,480.3516 Q122.4844,480.9297 121.6875,481.2578 Q120.6094,481.7109 119.3125,481.7109 Q117.7969,481.7109 116.5938,481.0859 Q115.6094,480.5859 114.9219,479.5156 Q114.2344,478.4453 114.2344,477.1641 L114.2344,476.0078 Q114.2344,474.6797 114.8516,473.5313 Q115.4688,472.3828 116.5625,471.7656 Q117.6563,471.1484 118.8906,471.1484 Q119.625,471.1484 120.2734,471.3125 Q120.9219,471.4766 121.4688,471.8359 Z " fill="#000000"/><text fill="#000000" font-family="sans-serif" font-size="12" font-style="italic" lengthAdjust="spacing" textLength="42.6855" x="142.7637" y="472.0664">&#171;struct&#187;</text><text fill="#000000" font-family="sans-serif" font-size="14" lengthAdjust="spacing" textLength="49.8066" x="139.2031" y="489.2363">Position</text><line style="stroke:#181818;stroke-width:0.5;" x1="59" x2="236.7129" y1="497.3125" y2="497.3125"/><text fill="#000000" font-family="sans-serif" font-size="14" lengthAdjust="spacing" textLength="167.7129" x="64" y="515.8457">+asset: shared_ptr&lt;Asset&gt;</text><text fill="#000000" font-family="sans-serif" font-size="14" lengthAdjust="spacing" textLength="107.0303" x="64" y="533.4551">+quantity: double</text><line style="stroke:#181818;stroke-width:0.5;" x1="59" x2="236.7129" y1="540.5313" y2="540.5313"/></g><!--class Portfolio--><g id="elem_Portfolio"><rect codeLine="57" fill="#F1F1F1" height="118.4375" id="Portfolio" rx="2.5" ry="2.5" style="stroke:#181818;stroke-width:0.5;" width="183.9785" x="55" y="293.6094"/><ellipse cx="117.0601" cy="309.6094" fill="#ADD1B2" rx="11" ry="11" style="stroke:#181818;stroke-width:1;"/><path d="M119.8257,305.4844 Q119.9819,305.2656 120.1694,305.1563 Q120.3569,305.0469 120.5757,305.0469 Q120.9507,305.0469 121.1851,305.3047 Q121.4194,305.5625 121.4194,306.1719 L121.4194,307.625 Q121.4194,308.2344 121.1851,308.5 Q120.9507,308.7656 120.5757,308.7656 Q120.2319,308.7656 120.0288,308.5625 Q119.8257,308.375 119.7163,307.8594 Q119.6694,307.5 119.4819,307.3125 Q119.1538,306.9375 118.5444,306.7188 Q117.9351,306.5 117.3101,306.5 Q116.5444,306.5 115.9116,306.8281 Q115.2788,307.1563 114.7866,307.9063 Q114.2944,308.6563 114.2944,309.6875 L114.2944,310.7813 Q114.2944,312.0156 115.1851,312.8359 Q116.0757,313.6563 117.6694,313.6563 Q118.6069,313.6563 119.2632,313.4063 Q119.6538,313.25 120.0757,312.8125 Q120.3413,312.5469 120.4897,312.4688 Q120.6382,312.3906 120.8413,312.3906 Q121.1694,312.3906 121.4272,312.6484 Q121.6851,312.9063 121.6851,313.25 Q121.6851,313.5938 121.3413,314 Q120.8413,314.5781 120.0444,314.9063 Q118.9663,315.3594 117.6694,315.3594 Q116.1538,315.3594 114.9507,314.7344 Q113.9663,314.2344 113.2788,313.1641 Q112.5913,312.0938 112.5913,310.8125 L112.5913,309.6563 Q112.5913,308.3281 113.2085,307.1797 Q113.8257,306.0313 114.9194,305.4141 Q116.0132,304.7969 117.2476,304.7969 Q117.9819,304.7969 118.6304,304.9609 Q119.2788,305.125 119.8257,305.4844 Z " fill="#000000"/><text fill="#000000" font-family="sans-serif" font-size="14" lengthAdjust="spacing" textLength="51.3584" x="137.5601" y="315.3379">Portfolio</text><line style="stroke:#181818;stroke-width:0.5;" x1="56" x2="237.9785" y1="325.6094" y2="325.6094"/><text fill="#000000" font-family="sans-serif" font-size="14" lengthAdjust="spacing" textLength="171.9785" x="61" y="344.1426">-positions: vector&lt;Position&gt;</text><text fill="#000000" font-family="sans-serif" font-size="14" lengthAdjust="spacing" textLength="122.1924" x="61" y="361.752">-initialValue: double</text><line style="stroke:#181818;stroke-width:0.5;" x1="56" x2="237.9785" y1="368.8281" y2="368.8281"/><text fill="#000000" font-family="sans-serif" font-size="14" lengthAdjust="spacing" textLength="102.334" x="61" y="387.3613">+addPosition(...)</text><text fill="#000000" font-family="sans-serif" font-size="14" lengthAdjust="spacing" textLength="135.0098" x="61" y="404.9707">+simulatePathPnL(...)</text></g><!--class InterestRateModel--><g id="elem_InterestRateModel"><rect codeLine="68" fill="#F1F1F1" height="118.4375" id="InterestRateModel" rx="2.5" ry="2.5" style="stroke:#181818;stroke-width:0.5;" width="194.4512" x="1354" y="98.6094"/><ellipse cx="1390.6264" cy="114.6094" fill="#B4A7E5" rx="11" ry="11" style="stroke:#181818;stroke-width:1;"/><path d="M1391.5795,111.25 L1391.5795,117.9063 L1393.2982,117.9063 Q1393.9076,117.9063 1394.1732,118.1406 Q1394.4389,118.375 1394.4389,118.7656 Q1394.4389,119.1406 1394.1732,119.375 Q1393.9076,119.6094 1393.2982,119.6094 L1388.1576,119.6094 Q1387.5482,119.6094 1387.2826,119.375 Q1387.017,119.1406 1387.017,118.75 Q1387.017,118.375 1387.2826,118.1406 Q1387.5482,117.9063 1388.1576,117.9063 L1389.8764,117.9063 L1389.8764,111.25 L1388.1576,111.25 Q1387.5482,111.25 1387.2826,111.0156 Q1387.017,110.7813 1387.017,110.3906 Q1387.017,110.0156 1387.2826,109.7813 Q1387.5482,109.5469 1388.1576,109.5469 L1393.2982,109.5469 Q1393.9076,109.5469 1394.1732,109.7813 Q1394.4389,110.0156 1394.4389,110.3906 Q1394.4389,110.7813 1394.1732,111.0156 Q1393.9076,111.25 1393.2982,111.25 L1391.5795,111.25 Z " fill="#000000"/><text fill="#000000" font-family="sans-serif" font-size="14" font-style="italic" lengthAdjust="spacing" textLength="114.3926" x="1409.4322" y="120.3379">InterestRateModel</text><line style="stroke:#181818;stroke-width:0.5;" x1="1355" x2="1547.4512" y1="130.6094" y2="130.6094"/><line style="stroke:#181818;stroke-width:0.5;" x1="1355" x2="1547.4512" y1="138.6094" y2="138.6094"/><text fill="#000000" font-family="sans-serif" font-size="14" lengthAdjust="spacing" textLength="173.1338" x="1360" y="157.1426">+simulateShortRatePath(...)</text><text fill="#000000" font-family="sans-serif" font-size="14" lengthAdjust="spacing" textLength="182.4512" x="1360" y="174.752">+discountFactorFromPath(...)</text><text fill="#000000" font-family="sans-serif" font-size="14" lengthAdjust="spacing" textLength="170.0371" x="1360" y="192.3613">+zeroCouponBondPrice(...)</text><text fill="#000000" font-family="sans-serif" font-size="14" lengthAdjust="spacing" textLength="112.4375" x="1360" y="209.9707">+initialShortRate()</text></g><!--class HullWhiteModel--><g id="elem_HullWhiteModel"><rect codeLine="75" fill="#F1F1F1" height="83.2188" id="HullWhiteModel" rx="2.5" ry="2.5" style="stroke:#181818;stroke-width:0.5;" width="192.5098" x="1351.5" y="311.1094"/><ellipse cx="1394.614" cy="327.1094" fill="#ADD1B2" rx="11" ry="11" style="stroke:#181818;stroke-width:1;"/><path d="M1397.3796,322.9844 Q1397.5359,322.7656 1397.7234,322.6563 Q1397.9109,322.5469 1398.1296,322.5469 Q1398.5046,322.5469 1398.739,322.8047 Q1398.9734,323.0625 1398.9734,323.6719 L1398.9734,325.125 Q1398.9734,325.7344 1398.739,326 Q1398.5046,326.2656 1398.1296,326.2656 Q1397.7859,326.2656 1397.5828,326.0625 Q1397.3796,325.875 1397.2703,325.3594 Q1397.2234,325 1397.0359,324.8125 Q1396.7078,324.4375 1396.0984,324.2188 Q1395.489,324 1394.864,324 Q1394.0984,324 1393.4656,324.3281 Q1392.8328,324.6563 1392.3406,325.4063 Q1391.8484,326.1563 1391.8484,327.1875 L1391.8484,328.2813 Q1391.8484,329.5156 1392.739,330.3359 Q1393.6296,331.1563 1395.2234,331.1563 Q1396.1609,331.1563 1396.8171,330.9063 Q1397.2078,330.75 1397.6296,330.3125 Q1397.8953,330.0469 1398.0437,329.9688 Q1398.1921,329.8906 1398.3953,329.8906 Q1398.7234,329.8906 1398.9812,330.1484 Q1399.239,330.4063 1399.239,330.75 Q1399.239,331.0938 1398.8953,331.5 Q1398.3953,332.0781 1397.5984,332.4063 Q1396.5203,332.8594 1395.2234,332.8594 Q1393.7078,332.8594 1392.5046,332.2344 Q1391.5203,331.7344 1390.8328,330.6641 Q1390.1453,329.5938 1390.1453,328.3125 L1390.1453,327.1563 Q1390.1453,325.8281 1390.7625,324.6797 Q1391.3796,323.5313 1392.4734,322.9141 Q1393.5671,322.2969 1394.8015,322.2969 Q1395.5359,322.2969 1396.1843,322.4609 Q1396.8328,322.625 1397.3796,322.9844 Z " fill="#000000"/><text fill="#000000" font-family="sans-serif" font-size="14" lengthAdjust="spacing" textLength="98.0342" x="1414.8616" y="332.8379">HullWhiteModel</text><line style="stroke:#181818;stroke-width:0.5;" x1="1352.5" x2="1543.0098" y1="343.1094" y2="343.1094"/><text fill="#000000" font-family="sans-serif" font-size="14" lengthAdjust="spacing" textLength="180.5098" x="1357.5" y="361.6426">-meanReversion, volatility, r0</text><line style="stroke:#181818;stroke-width:0.5;" x1="1352.5" x2="1543.0098" y1="368.7188" y2="368.7188"/><text fill="#000000" font-family="sans-serif" font-size="14" lengthAdjust="spacing" textLength="74.3066" x="1357.5" y="387.252">+getCurve()</text></g><!--class YieldCurve--><g id="elem_YieldCurve"><rect codeLine="80" fill="#F1F1F1" height="100.8281" id="YieldCurve" rx="2.5" ry="2.5" style="stroke:#181818;stroke-width:0.5;" width="203.0098" x="1344.5" y="451.1094"/><ellipse cx="1407.5171" cy="467.1094" fill="#ADD1B2" rx="11" ry="11" style="stroke:#181818;stroke-width:1;"/><path d="M1410.2827,462.9844 Q1410.439,462.7656 1410.6265,462.6563 Q1410.814,462.5469 1411.0327,462.5469 Q1411.4077,462.5469 1411.6421,462.8047 Q1411.8765,463.0625 1411.8765,463.6719 L1411.8765,465.125 Q1411.8765,465.7344 1411.6421,466 Q1411.4077,466.2656 1411.0327,466.2656 Q1410.689,466.2656 1410.4858,466.0625 Q1410.2827,465.875 1410.1733,465.3594 Q1410.1265,465 1409.939,464.8125 Q1409.6108,464.4375 1409.0015,464.2188 Q1408.3921,464 1407.7671,464 Q1407.0015,464 1406.3687,464.3281 Q1405.7358,464.6563 1405.2437,465.4063 Q1404.7515,466.1563 1404.7515,467.1875 L1404.7515,468.2813 Q1404.7515,469.5156 1405.6421,470.3359 Q1406.5327,471.1563 1408.1265,471.1563 Q1409.064,471.1563 1409.7202,470.9063 Q1410.1108,470.75 1410.5327,470.3125 Q1410.7983,470.0469 1410.9468,469.9688 Q1411.0952,469.8906 1411.2983,469.8906 Q1411.6265,469.8906 1411.8843,470.1484 Q1412.1421,470.4063 1412.1421,470.75 Q1412.1421,471.0938 1411.7983,471.5 Q1411.2983,472.0781 1410.5015,472.4063 Q1409.4233,472.8594 1408.1265,472.8594 Q1406.6108,472.8594 1405.4077,472.2344 Q1404.4233,471.7344 1403.7358,470.6641 Q1403.0483,469.5938 1403.0483,468.3125 L1403.0483,467.1563 Q1403.0483,465.8281 1403.6655,464.6797 Q1404.2827,463.5313 1405.3765,462.9141 Q1406.4702,462.2969 1407.7046,462.2969 Q1408.439,462.2969 1409.0874,462.4609 Q1409.7358,462.625 1410.2827,462.9844 Z " fill="#000000"/><text fill="#000000" font-family="sans-serif" font-size="14" lengthAdjust="spacing" textLength="68.4756" x="1428.0171" y="472.8379">YieldCurve</text><line style="stroke:#181818;stroke-width:0.5;" x1="1345.5" x2="1546.5098" y1="483.1094" y2="483.1094"/><text fill="#000000" font-family="sans-serif" font-size="14" lengthAdjust="spacing" textLength="109.6963" x="1350.5" y="501.6426">-times, zeroRates</text><line style="stroke:#181818;stroke-width:0.5;" x1="1345.5" x2="1546.5098" y1="508.7188" y2="508.7188"/><text fill="#000000" font-family="sans-serif" font-size="14" lengthAdjust="spacing" textLength="191.0098" x="1350.5" y="527.252">+zeroRate(t), discountFactor(t)</text><text fill="#000000" font-family="sans-serif" font-size="14" lengthAdjust="spacing" textLength="97.6445" x="1350.5" y="544.8613">+forwardRate(t)</text></g><!--class OptionType--><g id="elem_OptionType"><rect codeLine="10" fill="#F1F1F1" height="83.2188" id="OptionType" rx="2.5" ry="2.5" style="stroke:#181818;stroke-width:0.5;" width="104.3721" x="1096" y="460.1094"/><ellipse cx="1111" cy="476.1094" fill="#EB937F" rx="11" ry="11" style="stroke:#181818;stroke-width:1;"/><path d="M1109.8594,476.9063 L1109.8594,479.4063 L1114.1875,479.4063 L1114.1875,478.4844 Q1114.1875,477.875 1114.4297,477.6094 Q1114.6719,477.3438 1115.0469,477.3438 Q1115.4219,477.3438 1115.6563,477.6094 Q1115.8906,477.875 1115.8906,478.4844 L1115.8906,481.1094 L1107.8906,481.1094 Q1107.2656,481.1094 1107.0078,480.875 Q1106.75,480.6406 1106.75,480.25 Q1106.75,479.875 1107.0156,479.6406 Q1107.2813,479.4063 1107.8906,479.4063 L1108.1563,479.4063 L1108.1563,472.75 L1107.8906,472.75 Q1107.2656,472.75 1107.0078,472.5156 Q1106.75,472.2813 1106.75,471.8906 Q1106.75,471.5156 1107.0078,471.2813 Q1107.2656,471.0469 1107.8906,471.0469 L1115.5156,471.0469 L1115.5156,473.6406 Q1115.5156,474.25 1115.2891,474.5078 Q1115.0625,474.7656 1114.6719,474.7656 Q1114.2969,474.7656 1114.0625,474.5078 Q1113.8281,474.25 1113.8281,473.6406 L1113.8281,472.75 L1109.8594,472.75 L1109.8594,475.2031 L1111.3438,475.2031 Q1111.3438,474.5469 1111.4688,474.3594 Q1111.7344,473.9531 1112.2031,473.9531 Q1112.5781,473.9531 1112.8125,474.2109 Q1113.0469,474.4688 1113.0469,475.0781 L1113.0469,477.0469 Q1113.0469,477.5938 1112.9219,477.7813 Q1112.6563,478.1719 1112.2031,478.1719 Q1111.7344,478.1719 1111.4688,477.7656 Q1111.3438,477.5781 1111.3438,476.9063 L1109.8594,476.9063 Z " fill="#000000"/><text fill="#000000" font-family="sans-serif" font-size="14" lengthAdjust="spacing" textLength="72.3721" x="1125" y="481.8379">OptionType</text><line style="stroke:#181818;stroke-width:0.5;" x1="1097" x2="1199.3721" y1="492.1094" y2="492.1094"/><text fill="#000000" font-family="sans-serif" font-size="14" lengthAdjust="spacing" textLength="24.1172" x="1102" y="510.6426">Call</text><text fill="#000000" font-family="sans-serif" font-size="14" lengthAdjust="spacing" textLength="21.0137" x="1102" y="528.252">Put</text><line style="stroke:#181818;stroke-width:0.5;" x1="1097" x2="1199.3721" y1="535.3281" y2="535.3281"/></g><g id="elem_GMN27"><path d="M1596.5,136.1094 L1596.5,178.8125 L1849.0942,178.8125 L1849.0942,146.1094 L1839.0942,136.1094 L1596.5,136.1094 " fill="#FEFFDD" style="stroke:#181818;stroke-width:0.5;"/><path d="M1839.0942,136.1094 L1839.0942,146.1094 L1849.0942,146.1094 L1839.0942,136.1094 " fill="#FEFFDD" style="stroke:#181818;stroke-width:1;"/><text fill="#000000" font-family="sans-serif" font-size="13" lengthAdjust="spacing" textLength="231.5942" x="1602.5" y="154.6045">simulateFinalValue = hot path (Portfolio)</text><text fill="#000000" font-family="sans-serif" font-size="13" lengthAdjust="spacing" textLength="185.3643" x="1602.5" y="170.9561">generatePath = cold path (tests)</text></g><g id="elem_GMN30"><path d="M1596.5,339.6094 L1596.5,365.9609 L1705.6563,365.9609 L1705.6563,349.6094 L1695.6563,339.6094 L1596.5,339.6094 " fill="#FEFFDD" style="stroke:#181818;stroke-width:0.5;"/><path d="M1695.6563,339.6094 L1695.6563,349.6094 L1705.6563,349.6094 L1695.6563,339.6094 " fill="#FEFFDD" style="stroke:#181818;stroke-width:1;"/><text fill="#000000" font-family="sans-serif" font-size="13" lengthAdjust="spacing" textLength="88.1563" x="1602.5" y="358.1045">Up-and-out call</text></g><g id="elem_GMN33"><path d="M1746,331.1094 L1746,373.8125 L1917.9854,373.8125 L1917.9854,341.1094 L1907.9854,331.1094 L1746,331.1094 " fill="#FEFFDD" style="stroke:#181818;stroke-width:0.5;"/><path d="M1907.9854,331.1094 L1907.9854,341.1094 L1917.9854,341.1094 L1907.9854,331.1094 " fill="#FEFFDD" style="stroke:#181818;stroke-width:1;"/><text fill="#000000" font-family="sans-serif" font-size="13" lengthAdjust="spacing" textLength="150.9854" x="1752" y="349.6045">YTM/yieldVol o Hull-White</text><text fill="#000000" font-family="sans-serif" font-size="13" lengthAdjust="spacing" textLength="136.5508" x="1752" y="365.9561">(ver InterestRateModel)</text></g><g id="elem_GMN36"><path d="M1596,480.1094 L1596,522.8125 L1804.1416,522.8125 L1804.1416,490.1094 L1794.1416,480.1094 L1596,480.1094 " fill="#FEFFDD" style="stroke:#181818;stroke-width:0.5;"/><path d="M1794.1416,480.1094 L1794.1416,490.1094 L1804.1416,490.1094 L1794.1416,480.1094 " fill="#FEFFDD" style="stroke:#181818;stroke-width:1;"/><text fill="#000000" font-family="sans-serif" font-size="13" lengthAdjust="spacing" textLength="143.8062" x="1602" y="498.6045">Cada posicion referencia</text><text fill="#000000" font-family="sans-serif" font-size="13" lengthAdjust="spacing" textLength="187.1416" x="1602" y="514.9561">un Asset concreto (pag. Activos)</text></g><!--reverse link Asset to GBMAsset--><g id="link_Asset_GBMAsset"><path codeLine="44" d="M943,243.8094 C943,275.5494 943,293.8594 943,319.4694 " fill="none" id="Asset-backto-GBMAsset" style="stroke:#181818;stroke-width:1;"/><polygon fill="none" points="943,225.8094,937,243.8094,949,243.8094,943,225.8094" style="stroke:#181818;stroke-width:1;"/></g><!--reverse link Asset to EuropeanOption--><g id="link_Asset_EuropeanOption"><path codeLine="45" d="M1027,243.7494 C1027,286.7094 1027,316.1094 1027,316.1094 C1027,316.1094 1038.52,316.1094 1054.46,316.1094 " fill="none" id="Asset-backto-EuropeanOption" style="stroke:#181818;stroke-width:1;"/><polygon fill="none" points="1027,225.7494,1021,243.7494,1033,243.7494,1027,225.7494" style="stroke:#181818;stroke-width:1;"/></g><!--reverse link Asset to BarrierOption--><g id="link_Asset_BarrierOption"><path codeLine="46" d="M828.48,192.1094 C685.73,192.1094 453,192.1094 453,192.1094 C453,192.1094 453,263.2994 453,310.8594 " fill="none" id="Asset-backto-BarrierOption" style="stroke:#181818;stroke-width:1;"/><polygon fill="none" points="846.48,192.1094,828.48,186.1094,828.48,198.1094,846.48,192.1094" style="stroke:#181818;stroke-width:1;"/></g><!--reverse link Asset to CouponBond--><g id="link_Asset_CouponBond"><path codeLine="47" d="M859,243.7994 C859,283.2294 859,307.1094 859,307.1094 C859,307.1094 847.47,307.1094 831.07,307.1094 " fill="none" id="Asset-backto-CouponBond" style="stroke:#181818;stroke-width:1;"/><polygon fill="none" points="859,225.7994,853,243.7994,865,243.7994,859,225.7994" style="stroke:#181818;stroke-width:1;"/></g><!--link EuropeanOption to OptionType--><g id="link_EuropeanOption_OptionType"><path codeLine="48" d="M1148,394.1094 C1148,414.6894 1148,433.4794 1148,454.0694 " fill="none" id="EuropeanOption-to-OptionType" style="stroke:#181818;stroke-width:1;"/><polygon fill="#181818" points="1148,460.0694,1152,451.0694,1148,455.0694,1144,451.0694,1148,460.0694" style="stroke:#181818;stroke-width:1;"/></g><!--reverse link Portfolio to Position--><g id="link_Portfolio_Position"><path codeLine="64" d="M118,423.9294 C118,438.0494 118,440.9294 118,454.4194 " fill="none" id="Portfolio-backto-Position" style="stroke:#181818;stroke-width:1;"/><polygon fill="#181818" points="118,411.9294,114,417.9294,118,423.9294,122,417.9294,118,411.9294" style="stroke:#181818;stroke-width:1;"/><text fill="#000000" font-family="sans-serif" font-size="13" lengthAdjust="spacing" textLength="19.5127" x="93.2572" y="443.84">1..*</text></g><!--reverse link InterestRateModel to HullWhiteModel--><g id="link_InterestRateModel_HullWhiteModel"><path codeLine="86" d="M1449.25,234.6494 C1449.25,265.1394 1449.25,283.5994 1449.25,311.0894 " fill="none" id="InterestRateModel-backto-HullWhiteModel" style="stroke:#181818;stroke-width:1;stroke-dasharray:7.0,7.0;"/><polygon fill="none" points="1449.25,216.6494,1443.25,234.6494,1455.25,234.6494,1449.25,216.6494" style="stroke:#181818;stroke-width:1;"/></g><!--reverse link HullWhiteModel to YieldCurve--><g id="link_HullWhiteModel_YieldCurve"><path codeLine="87" d="M1448,406.1094 C1448,423.7694 1448,432.5194 1448,451.0494 " fill="none" id="HullWhiteModel-backto-YieldCurve" style="stroke:#181818;stroke-width:1;"/><polygon fill="#181818" points="1448,394.1094,1444,400.1094,1448,406.1094,1452,400.1094,1448,394.1094" style="stroke:#181818;stroke-width:1;"/></g><!--link PKG_ASSET to PKG_CART--><!--link PKG_ASSET to PKG_IR--><!--link Asset to GMN27--><g id="link_Asset_GMN27"><path d="M1039.59,221.1094 C1233.33,221.1094 1651,221.1094 1651,221.1094 C1651,221.1094 1651,197.8294 1651,179.4594 " fill="none" id="Asset-GMN27" style="stroke:#181818;stroke-width:1;stroke-dasharray:7.0,7.0;"/></g><!--link BarrierOption to GMN30--><g id="link_BarrierOption_GMN30"><path d="M453,394.3894 C453,402.2794 453,408.1094 453,408.1094 C453,408.1094 1669.17,408.1094 1669.17,408.1094 C1669.17,408.1094 1669.17,382.1694 1669.17,365.7594 " fill="none" id="BarrierOption-GMN30" style="stroke:#181818;stroke-width:1;stroke-dasharray:7.0,7.0;"/></g><!--link CouponBond to GMN33--><g id="link_CouponBond_GMN33"><path d="M831.31,399.1094 C1101.59,399.1094 1775,399.1094 1775,399.1094 C1775,399.1094 1775,386.3694 1775,374.2294 " fill="none" id="CouponBond-GMN33" style="stroke:#181818;stroke-width:1;stroke-dasharray:7.0,7.0;"/></g><!--link Position to GMN36--><g id="link_Position_GMN36"><path d="M178,454.4794 C178,442.0894 178,432.1094 178,432.1094 C178,432.1094 1632.83,432.1094 1632.83,432.1094 C1632.83,432.1094 1632.83,459.5994 1632.83,479.9994 " fill="none" id="Position-GMN36" style="stroke:#181818;stroke-width:1;stroke-dasharray:7.0,7.0;"/></g><!--SRC=[KypCIyufJKbLACtDYK_9pytCoyoFJyfFgTGh08e00000]--></g></svg>